G04 DipTrace Beta 3.9.0.1*
G04 Bottom.gbr*
%MOMM*%
G04 #@! TF.FileFunction,Copper,L2,Bot*
G04 #@! TF.Part,Single*
%AMOUTLINE0*
4,1,4,
-0.74993,0.75007,
0.75007,0.74993,
0.74993,-0.75007,
-0.75007,-0.74993,
-0.74993,0.75007,
0*%
G04 #@! TA.AperFunction,Conductor*
%ADD14C,0.4*%
G04 #@! TA.AperFunction,ComponentPad*
%ADD15R,1.5X1.5*%
%ADD16C,1.5*%
%ADD17O,5.0X2.0*%
%ADD18O,4.5X2.0*%
%ADD19O,2.0X4.5*%
%ADD21R,1.23X1.23*%
%ADD22C,1.23*%
%ADD23C,1.6*%
%ADD24R,1.6X1.6*%
%ADD25R,1.8X1.8*%
%ADD26C,1.8*%
%ADD27C,1.27*%
%ADD28C,1.27*%
%ADD29C,1.5*%
%ADD63OUTLINE0*%
%FSLAX35Y35*%
G04*
G71*
G90*
G75*
G01*
G04 Bottom*
%LPD*%
X937315Y4461435D2*
D14*
Y4090935D1*
X948308Y4079938D1*
X1191312Y4461435D2*
Y4090935D1*
X1202312Y4079938D1*
X2218312D2*
Y4450435D1*
X2207312Y4461435D1*
X-2999692D2*
Y4090935D1*
X-2988685Y4079938D1*
X-1729688Y4461435D2*
Y4090935D1*
X-1718688Y4079938D1*
X-4131688Y1412935D2*
X-4512692D1*
X3286815Y4461435D2*
Y4090935D1*
X3297808Y4079938D1*
X-3761692Y4461435D2*
Y4090935D1*
X-3750685Y4079938D1*
X-4131688Y1666935D2*
X-4512692D1*
X-4131688Y2174935D2*
X-4512692D1*
X-4131688Y2428935D2*
X-4512692D1*
X4017062Y968938D2*
Y1143562D1*
X4650072D1*
Y793750D1*
X5509312D1*
Y651432D1*
X-6571568Y3048562D2*
X-6746188Y3223182D1*
Y3985224D1*
X-6603337Y4128075D1*
X-2036188Y2682938D2*
X-2364692D1*
Y1795938D1*
X-1516318D1*
X-1326388Y1606008D1*
X-840756D1*
Y1731072D1*
X4313808Y3317935D2*
Y2958188D1*
X4493308Y2778688D1*
X-840756Y1731072D2*
Y1996018D1*
X-207718D1*
Y1556315D1*
X46282D1*
Y2368008D1*
X-207718D1*
Y2796592D1*
X-323675Y2912548D1*
Y3651812D1*
X-702688D1*
Y3317935D1*
X4313808D2*
Y3651812D1*
X3930822D1*
Y2870745D1*
X3888072Y2827995D1*
Y2342608D1*
X2861008D1*
X2836202Y2367415D1*
X2159000D1*
Y2889250D1*
X2317750Y3048000D1*
Y3143250D1*
X2343322Y3168822D1*
Y3651812D1*
X2089322D1*
Y3143808D1*
X1858065D1*
Y2492418D1*
X1583268D1*
X-3904562Y4651935D2*
X-3502448D1*
Y4439073D1*
X-3371678Y4308303D1*
Y3508938D1*
X-3496688D1*
X-3691682D1*
X-3695678Y3512935D1*
X-4793558D1*
Y2049935D1*
X-3493312D1*
X-3380688Y1937312D1*
X-3369692D1*
Y1920938D1*
X1858065Y3143808D2*
X1710312D1*
Y3317935D1*
X5763312Y619685D2*
Y667437D1*
X5920075Y824200D1*
Y1286435D1*
X7469402D1*
Y3652925D1*
X6476065D1*
X4313808D1*
Y3317935D1*
X-3369692Y1920938D2*
X-2990688Y1541935D1*
X-2364692D1*
Y1158938D1*
X-2036188D1*
X2089322Y3651812D2*
X-323675D1*
X6472812Y3317935D2*
X6476065D1*
Y3652925D1*
X5509312Y651432D2*
X5731565D1*
X5763312Y619685D1*
X-2036188Y1158938D2*
X1146398D1*
Y1859418D1*
X1778685D1*
Y1605418D1*
X1350062D1*
Y968418D1*
X1583268D1*
X-2364692Y1795938D2*
Y1541935D1*
X-3496688Y3508938D2*
Y3317935D1*
X-3496685D1*
X-6603337Y4128075D2*
X-6079477Y4651935D1*
X-3904562D1*
X46282Y1556315D2*
X683244D1*
Y1730936D1*
X4493308Y2778688D2*
X4509185Y2762812D1*
X4667938D1*
X-4131688Y2682938D2*
X-4512692D1*
X4271058Y651435D2*
X4493802D1*
X4493815Y651425D1*
X4747315D1*
X4271062Y968938D2*
Y651435D1*
X4271058D1*
X3731312Y2778688D2*
X3509062D1*
Y2492938D1*
X1583268Y1476418D2*
X1458262D1*
Y1097418D1*
X1708268D1*
X1962268Y843418D1*
X2863735D1*
X3275002Y1254685D1*
X4779062D1*
Y968938D1*
X-5143318Y2921595D2*
X-5539692Y2525218D1*
Y1810312D1*
X-5619065D1*
X-5143292Y2411595D2*
X-5319058Y2235828D1*
Y1699035D1*
X-5619065Y1399025D1*
Y1210312D1*
X-5968312Y3953435D2*
Y2921555D1*
X-5968318D1*
X-5730188Y2683428D1*
Y2230068D1*
X-6349315D1*
X-6501572D1*
X-6571565Y2300058D1*
Y2540558D1*
X-6349315Y2230068D2*
Y1667445D1*
X7223808Y3064435D2*
Y3306938D1*
X7234812Y3317938D1*
X5445812Y3032685D2*
Y3181938D1*
X5456812Y3192938D1*
Y3317938D1*
X5699808Y3032685D2*
Y3306938D1*
X5710808Y3317938D1*
X5064808Y3048565D2*
Y3306938D1*
X5075808Y3317938D1*
X3286815Y3032685D2*
Y3181938D1*
X3297808Y3192938D1*
Y3317938D1*
X3540812Y3032685D2*
Y3306938D1*
X3551808Y3317938D1*
X694312D2*
Y3043685D1*
X683312Y3032685D1*
X937308D2*
Y3306938D1*
X948308Y3317938D1*
X2726315Y4460935D2*
Y3778250D1*
X1710312D1*
Y4079935D1*
X-702688D2*
Y3778250D1*
X-1339682D1*
X-1981168D1*
Y4709732D1*
X-2051172Y4779735D1*
X-6237388D1*
X-6873185Y4143938D1*
Y2794562D1*
X-6571568D1*
X-6603281Y3620075D2*
X-6238192D1*
Y4207435D1*
X-5984188Y4461438D1*
X-5968318D1*
X-2036188Y1920938D2*
X-2237692D1*
Y2302435D1*
X-1332815D1*
X-1094688D1*
Y2493094D1*
X3255065Y2778688D2*
X2883575D1*
X2851325Y2746438D1*
X2726315D1*
X-6857312Y1667438D2*
X-6223812Y1033938D1*
X-3872815D1*
X-2927188D1*
X-2798188Y904938D1*
X4017058Y651435D2*
X3888072D1*
Y812178D1*
X3763062Y937188D1*
Y968938D1*
X2345268Y2746418D2*
X2726315D1*
Y2746438D1*
X-2798188Y904938D2*
X-2546655Y653405D1*
X1254812D1*
Y1730418D1*
X1583268D1*
X-6571568Y2794562D2*
X-6238185D1*
X-5968305Y2524682D1*
Y2411572D1*
X-1339682Y3778250D2*
Y2372802D1*
X-1332815Y2365935D1*
Y2302435D1*
X-5968318Y4461438D2*
Y4207438D1*
X2715315Y3064435D2*
Y3778250D1*
X4313808D1*
Y4079935D1*
X-6238192Y3620075D2*
X-6238185Y2794562D1*
X-6873185D2*
Y1667438D1*
X-6857312D1*
X1710312Y3778250D2*
X-702688D1*
X3888072Y651435D2*
X1254812Y653405D1*
X-3872815Y1033938D2*
Y1920938D1*
X-4131692D1*
X-5603185Y4461432D2*
X-5026692Y3884938D1*
X-3496685D1*
Y4079935D1*
X-5968318Y4461438D2*
X-5603185D1*
Y4461432D1*
X-1094688Y2302435D2*
X-316815D1*
X-78756Y2064376D1*
Y1731004D1*
X6472812Y4079935D2*
Y3778250D1*
X7620688D1*
Y1175312D1*
X6936072D1*
Y619685D1*
X6525312D1*
X4313808Y3778250D2*
X6472812D1*
X2726315D2*
X2715315D1*
X2726315Y2746438D2*
X2715315Y2757438D1*
Y3064435D1*
X3540812Y4461435D2*
Y4090935D1*
X3551808Y4079938D1*
X3794812Y4461435D2*
Y4090935D1*
X3805812Y4079938D1*
X4048808Y4461435D2*
Y4090935D1*
X4059812Y4079938D1*
X4556812Y4461435D2*
Y4090935D1*
X4567812Y4079938D1*
X4810808Y4461435D2*
Y4090935D1*
X4821812Y4079938D1*
X5064808Y4461435D2*
Y4090935D1*
X5075808Y4079938D1*
X6715812Y4461435D2*
Y4090935D1*
X6726808Y4079938D1*
X6969812Y4461435D2*
Y4090935D1*
X6980812Y4079938D1*
X7223808Y4461435D2*
Y4090935D1*
X7234812Y4079938D1*
X6239562Y4461435D2*
Y4276805D1*
X6218812Y4256058D1*
Y4079938D1*
X5985562Y4461435D2*
Y4276805D1*
X5964812Y4256058D1*
Y4079938D1*
X5731565Y4461435D2*
Y4276805D1*
X5710808Y4256058D1*
Y4079938D1*
X5477565Y4461435D2*
Y4336435D1*
X5456812Y4315688D1*
Y4079938D1*
X683315Y4461435D2*
Y4090935D1*
X694312Y4079938D1*
X-1094752Y1731092D2*
Y2174935D1*
X-2036192D1*
X4525062Y2492938D2*
Y2113415D1*
X1708272D1*
X1583272Y2238422D1*
X-586755Y1731048D2*
Y1397565D1*
X-2036192D1*
Y1412935D1*
X1583272Y2238422D2*
X878282D1*
X808282Y2168418D1*
Y1397562D1*
X-586755D1*
X1445312Y4461435D2*
Y4090935D1*
X1456312Y4079938D1*
X1964308D2*
Y4450435D1*
X1953312Y4461435D1*
X1583268Y2746418D2*
Y2714625D1*
X592485D1*
X554282Y2676422D1*
Y2364032D1*
X175244Y1984995D1*
Y1730981D1*
X2472312Y4079938D2*
Y4450435D1*
X2461308Y4461435D1*
X-3253688D2*
Y4090935D1*
X-3242688Y4079938D1*
X-332752Y1731022D2*
Y1856018D1*
X-715718D1*
Y1508685D1*
X-1840818D1*
X-1999068Y1666935D1*
X-2036192D1*
X1583272Y1984422D2*
X2083918D1*
X2208925Y1859418D1*
X5287062D1*
Y2492938D1*
X-2036192Y1666935D2*
X-2237692D1*
Y1287935D1*
X969058D1*
Y1984422D1*
X1583272D1*
X-2734688Y4079938D2*
Y4450435D1*
X-2745688Y4461435D1*
X-4523685D2*
Y4090935D1*
X-4512685Y4079938D1*
X-4269688Y4461435D2*
Y4090935D1*
X-4258688Y4079938D1*
X-4015688Y4461435D2*
Y4090935D1*
X-4004688Y4079938D1*
X-1475685Y4461435D2*
Y4090935D1*
X-1464692Y4079938D1*
X-1210685D2*
Y4450435D1*
X-1221688Y4461435D1*
X-967688D2*
Y4090935D1*
X-956688Y4079938D1*
X-448692D2*
Y4315688D1*
X-427938Y4336435D1*
Y4461435D1*
X-173938D2*
Y4276805D1*
X-194688Y4256058D1*
Y4079938D1*
X80058Y4461435D2*
Y4336425D1*
X59312Y4315678D1*
Y4079938D1*
X-4131688Y904938D2*
X-4512692D1*
X-4131688Y1158938D2*
X-4512692D1*
X-2798185D2*
X-2927192Y1287935D1*
X-3244688D1*
X-3369688Y1412935D1*
X-2798185D2*
X-3115688D1*
X-3369688Y1666935D1*
Y2174935D2*
X-3348438D1*
X-2840438Y1666935D1*
X-2798185D1*
X-3369688Y2428935D2*
X-3055688D1*
X-2930688Y2303935D1*
X-2618688D1*
Y1920938D1*
X-2798185D1*
X-4004685Y3317935D2*
X-3968750D1*
Y2337997D1*
X-3934688Y2303935D1*
X-3239168D1*
X-3110172Y2174938D1*
X-2798188D1*
X-2798185Y2428935D2*
X-2927185Y2557938D1*
X-3750685D1*
Y3317938D1*
X-2798185Y2682938D2*
Y2878812D1*
X-2920315Y3000935D1*
X-2925692D1*
X-3242688Y3317938D1*
X-2036192Y2428935D2*
X-1911175D1*
Y3508938D1*
X-2988685D1*
Y3317938D1*
X-1210685D2*
Y3005815D1*
X-840688Y2635812D1*
Y2493068D1*
X-586692Y2493048D2*
Y2778688D1*
X-956688Y3148688D1*
Y3317938D1*
X-332688Y2493022D2*
Y2700005D1*
X-448692Y2816008D1*
Y3317938D1*
X-78688Y2493002D2*
Y2910005D1*
X-194688Y3026005D1*
Y3317938D1*
X175308Y2492978D2*
Y2837718D1*
X245275Y2907685D1*
X1132312D1*
X1202312Y2977688D1*
Y3317938D1*
X1456312Y3317935D2*
Y2907692D1*
X1358495Y2809875D1*
X471472D1*
X429312Y2767716D1*
Y2492958D1*
X683312Y2492938D2*
X811788Y2621418D1*
X1731058D1*
Y2926355D1*
X1581322Y3076098D1*
Y3508938D1*
X1964308D1*
Y3317938D1*
X429248Y1730958D2*
Y2032968D1*
X763688Y2367415D1*
X2019332D1*
Y2923952D1*
X2218312Y3122932D1*
Y3317938D1*
X2461315Y3064435D2*
Y3306938D1*
X2472312Y3317938D1*
X-1718688D2*
Y3011935D1*
X-1729688Y3000935D1*
X-1475692D2*
Y3306938D1*
X-1464692Y3317938D1*
X48308Y3032685D2*
Y3306938D1*
X59312Y3317938D1*
X-4523685Y3032685D2*
Y3181938D1*
X-4512685Y3192938D1*
Y3317938D1*
X-4269688Y3032685D2*
Y3306938D1*
X-4258688Y3317938D1*
X-2745688Y3064435D2*
Y3306938D1*
X-2734688Y3317938D1*
X-3126692Y905438D2*
X-3369688D1*
Y904938D1*
X-3126692Y1159438D2*
X-3369688D1*
Y1158938D1*
X-3126692Y2683438D2*
X-3369688D1*
Y2682938D1*
X-5349185Y4461432D2*
X-5095188D1*
Y4461435D1*
X6271312Y619685D2*
X6303062D1*
Y968938D1*
X6049062D2*
Y619685D1*
X6017312D1*
X4921938Y2762812D2*
Y2637808D1*
X4904068Y2619938D1*
Y2617948D1*
X4779058Y2492938D1*
X5175938Y2762812D2*
X5033065Y2619932D1*
Y2492938D1*
X1583272Y1222422D2*
X1936135D1*
X2061142Y1097418D1*
X2398768D1*
X2778292Y1476935D1*
X6568595D1*
X6682075Y1590415D1*
Y2795775D1*
X6851822Y2965528D1*
Y3508938D1*
X6597818D1*
Y3143808D1*
X6343822D1*
Y3508938D1*
X5964812D1*
Y3317938D1*
X6980812D2*
Y2833018D1*
X6936072Y2788278D1*
Y1381685D1*
X3173242D1*
X2759975Y968418D1*
X2345265D1*
Y1222422D2*
X2679158Y1556315D1*
X6323968D1*
X6428072Y1660418D1*
Y2824195D1*
X6726808Y3122932D1*
Y3317938D1*
X2345265Y1476422D2*
X2529262Y1660418D1*
X6104068D1*
X6174072Y1730418D1*
Y3148198D1*
X6218812Y3192938D1*
Y3317938D1*
X2345268Y1730418D2*
Y1762688D1*
X5374338D1*
X5412072Y1800422D1*
Y2637808D1*
X5300942D1*
Y2889250D1*
X4935808D1*
Y3122942D1*
X4865812Y3192938D1*
X4872812D1*
X4821808Y3243942D1*
Y3317935D1*
X4567808D2*
Y3069312D1*
X4713565Y2923555D1*
X4722945D1*
X4794250Y2852250D1*
Y2698750D1*
X4650072Y2554572D1*
Y1984418D1*
X2345268D1*
X2345265Y2238422D2*
X4142068D1*
Y2878238D1*
X4059812Y2960495D1*
Y3317938D1*
X2345268Y2492418D2*
X2840692D1*
X2983523Y2635250D1*
X3380058D1*
Y2856183D1*
X3431560Y2907685D1*
X3735808D1*
X3805808Y2977685D1*
Y3317935D1*
D15*
X-4512685D3*
D16*
X-4258685D3*
X-4004685D3*
X-3750685D3*
X-3496685D3*
X-3242685D3*
X-2988685D3*
X-2734685D3*
Y4079935D3*
X-2988685D3*
X-3242685D3*
X-3496685D3*
X-3750685D3*
X-4004685D3*
X-4258685D3*
X-4512685D3*
D15*
X-3369692Y904938D3*
D16*
Y1158938D3*
Y1412938D3*
Y1666938D3*
Y1920938D3*
Y2174938D3*
Y2428938D3*
Y2682938D3*
X-4131692D3*
Y2428938D3*
Y2174938D3*
Y1920938D3*
Y1666938D3*
Y1412938D3*
Y1158938D3*
Y904938D3*
D15*
X-1718688Y3317935D3*
D16*
X-1464688D3*
X-1210688D3*
X-956688D3*
X-702688D3*
X-448688D3*
X-194688D3*
X59312D3*
Y4079935D3*
X-194688D3*
X-448688D3*
X-702688D3*
X-956688D3*
X-1210688D3*
X-1464688D3*
X-1718688D3*
D15*
X3297808Y3317935D3*
D16*
X3551808D3*
X3805808D3*
X4059808D3*
X4313808D3*
X4567808D3*
X4821808D3*
X5075808D3*
Y4079935D3*
X4821808D3*
X4567808D3*
X4313808D3*
X4059808D3*
X3805808D3*
X3551808D3*
X3297808D3*
D15*
X694312Y3317935D3*
D16*
X948312D3*
X1202312D3*
X1456312D3*
X1710312D3*
X1964312D3*
X2218312D3*
X2472312D3*
Y4079935D3*
X2218312D3*
X1964312D3*
X1710312D3*
X1456312D3*
X1202312D3*
X948312D3*
X694312D3*
D15*
X5456812Y3317935D3*
D16*
X5710812D3*
X5964812D3*
X6218812D3*
X6472812D3*
X6726812D3*
X6980812D3*
X7234812D3*
Y4079935D3*
X6980812D3*
X6726812D3*
X6472812D3*
X6218812D3*
X5964812D3*
X5710812D3*
X5456812D3*
D15*
X2345268Y968418D3*
D16*
Y1222418D3*
Y1476418D3*
Y1730418D3*
Y1984418D3*
Y2238418D3*
Y2492418D3*
Y2746418D3*
X1583268D3*
Y2492418D3*
Y2238418D3*
Y1984418D3*
Y1730418D3*
Y1476418D3*
Y1222418D3*
Y968418D3*
D63*
X683312Y2492936D3*
D16*
X429312Y2492958D3*
X175312Y2492981D3*
X-78688Y2493004D3*
X-332688Y2493026D3*
X-586688Y2493049D3*
X-840688Y2493072D3*
X-1094688Y2493094D3*
X-1094756Y1731094D3*
X-840756Y1731072D3*
X-586756Y1731049D3*
X-332756Y1731026D3*
X-78756Y1731004D3*
X175244Y1730981D3*
X429244Y1730958D3*
X683244Y1730936D3*
D15*
X5064808Y4461435D3*
D16*
X4810808D3*
X4556808D3*
D15*
X-2798188Y2682938D3*
D16*
Y2428938D3*
Y2174938D3*
Y1920938D3*
Y1666938D3*
Y1412938D3*
Y1158938D3*
Y904938D3*
X-2036188D3*
Y1158938D3*
Y1412938D3*
Y1666938D3*
Y1920938D3*
Y2174938D3*
Y2428938D3*
Y2682938D3*
D15*
X6239562Y4461435D3*
D16*
X5985562D3*
X5731562D3*
X5477562D3*
D15*
X2461312D3*
D16*
X2207312D3*
X1953312D3*
D15*
X80062D3*
D16*
X-173938D3*
X-427938D3*
D15*
X7223812D3*
D16*
X6969812D3*
X6715812D3*
D15*
X-4512692Y2682935D3*
D16*
Y2428935D3*
Y2174935D3*
D15*
X-3761688Y4461435D3*
D16*
X-4015688D3*
X-4269688D3*
X-4523688D3*
D15*
X1445315D3*
D16*
X1191315D3*
X937315D3*
X683315D3*
D15*
X-2745692D3*
D16*
X-2999692D3*
X-3253692D3*
D15*
X-967685D3*
D16*
X-1221685D3*
X-1475685D3*
X-1729685D3*
D15*
X-4512692Y1666935D3*
D16*
Y1412935D3*
Y1158935D3*
Y904935D3*
D15*
X4048812Y4461435D3*
D16*
X3794812D3*
X3540812D3*
X3286812D3*
D15*
X3255065Y2778688D3*
D16*
X3509065D3*
D15*
X4271058Y651435D3*
D16*
X4017058D3*
D15*
X7065062Y2492938D3*
D16*
X6811062D3*
X6557062D3*
X6303062D3*
X6049062D3*
X5795062D3*
X5541062D3*
X5287062D3*
X5033062D3*
X4779062D3*
X4525062D3*
X4271062D3*
X4017062D3*
X3763062D3*
X3509062D3*
Y968938D3*
X3763062D3*
X4017062D3*
X4271062D3*
X4525062D3*
X4779062D3*
X5033062D3*
X5287062D3*
X5541062D3*
X5795062D3*
X6049062D3*
X6303062D3*
X6557062D3*
X6811062D3*
X7065062D3*
D17*
X-5619065Y1810315D3*
D18*
Y1210315D3*
D19*
X-5149065Y1510315D3*
D21*
X-5968305Y2921572D3*
D22*
Y2411572D3*
X-5143305D3*
Y2921572D3*
D23*
X-6857312Y1667438D3*
D24*
X-6349312D3*
D23*
X-6603281Y3620075D3*
D24*
X-6603337Y4128075D3*
D25*
X-6571568Y2540562D3*
D26*
Y3048562D3*
Y2794562D3*
D15*
X5445808Y3032685D3*
D16*
X5699808D3*
D15*
X7223808Y3064435D3*
D16*
Y2810435D3*
D15*
X3286815Y3032685D3*
D16*
X3540815D3*
D15*
X5064808Y3048565D3*
D16*
X4810808D3*
D15*
X683308Y3032685D3*
D16*
X937308D3*
D15*
X2461315Y3064435D3*
D16*
X2715315D3*
D15*
X-1729688Y3000935D3*
D16*
X-1475688D3*
D15*
X48308Y3032685D3*
D16*
X302308D3*
D15*
X-4523688D3*
D16*
X-4269688D3*
D15*
X-2745688Y3064435D3*
D16*
X-2491688D3*
D15*
X-3126692Y905438D3*
D16*
Y1159438D3*
D15*
Y2683438D3*
D16*
Y2937438D3*
D15*
X-5968318Y3953438D3*
D16*
Y4207438D3*
Y4461438D3*
D15*
X-5095185Y4461432D3*
D16*
X-5349185D3*
X-5603185D3*
D15*
X5429938Y2762812D3*
D16*
X5175938D3*
X4921938D3*
X4667938D3*
D27*
X5509312Y651432D3*
D28*
X4747312D3*
D27*
X4493308Y2778688D3*
D28*
X3731308D3*
D15*
X5763312Y619685D3*
D16*
X6017312D3*
X6271312D3*
X6525312D3*
D29*
X2726315Y2746438D3*
Y4460935D3*
X-3904562Y4651935D3*
M02*
