G04 DipTrace Beta 3.9.0.1*
G04 BottomMask.gbr*
%MOMM*%
G04 #@! TF.FileFunction,Soldermask,Bot*
G04 #@! TF.Part,Single*
%AMOUTLINE1*
4,1,4,
-0.79993,0.80007,
0.80007,0.79993,
0.79993,-0.80007,
-0.80007,-0.79993,
-0.79993,0.80007,
0*%
%ADD23C,1.6*%
%ADD24R,1.6X1.6*%
%ADD30C,1.651*%
%ADD31C,3.0*%
%ADD40C,1.37*%
%ADD42C,1.37*%
%ADD44C,1.9*%
%ADD46R,1.9X1.9*%
%ADD47R,1.7X1.7*%
%ADD48C,1.7*%
%ADD49C,1.33*%
%ADD51R,1.33X1.33*%
%ADD53O,2.1X4.6*%
%ADD55O,4.6X2.1*%
%ADD57O,5.1X2.1*%
%ADD59C,1.6*%
%ADD64OUTLINE1*%
%FSLAX35Y35*%
G04*
G71*
G90*
G75*
G01*
G04 BotMask*
%LPD*%
D24*
X-4512685Y3317935D3*
D59*
X-4258685D3*
X-4004685D3*
X-3750685D3*
X-3496685D3*
X-3242685D3*
X-2988685D3*
X-2734685D3*
Y4079935D3*
X-2988685D3*
X-3242685D3*
X-3496685D3*
X-3750685D3*
X-4004685D3*
X-4258685D3*
X-4512685D3*
D24*
X-3369692Y904938D3*
D59*
Y1158938D3*
Y1412938D3*
Y1666938D3*
Y1920938D3*
Y2174938D3*
Y2428938D3*
Y2682938D3*
X-4131692D3*
Y2428938D3*
Y2174938D3*
Y1920938D3*
Y1666938D3*
Y1412938D3*
Y1158938D3*
Y904938D3*
D24*
X-1718688Y3317935D3*
D59*
X-1464688D3*
X-1210688D3*
X-956688D3*
X-702688D3*
X-448688D3*
X-194688D3*
X59312D3*
Y4079935D3*
X-194688D3*
X-448688D3*
X-702688D3*
X-956688D3*
X-1210688D3*
X-1464688D3*
X-1718688D3*
D24*
X3297808Y3317935D3*
D59*
X3551808D3*
X3805808D3*
X4059808D3*
X4313808D3*
X4567808D3*
X4821808D3*
X5075808D3*
Y4079935D3*
X4821808D3*
X4567808D3*
X4313808D3*
X4059808D3*
X3805808D3*
X3551808D3*
X3297808D3*
D24*
X694312Y3317935D3*
D59*
X948312D3*
X1202312D3*
X1456312D3*
X1710312D3*
X1964312D3*
X2218312D3*
X2472312D3*
Y4079935D3*
X2218312D3*
X1964312D3*
X1710312D3*
X1456312D3*
X1202312D3*
X948312D3*
X694312D3*
D24*
X5456812Y3317935D3*
D59*
X5710812D3*
X5964812D3*
X6218812D3*
X6472812D3*
X6726812D3*
X6980812D3*
X7234812D3*
Y4079935D3*
X6980812D3*
X6726812D3*
X6472812D3*
X6218812D3*
X5964812D3*
X5710812D3*
X5456812D3*
D24*
X2345268Y968418D3*
D59*
Y1222418D3*
Y1476418D3*
Y1730418D3*
Y1984418D3*
Y2238418D3*
Y2492418D3*
Y2746418D3*
X1583268D3*
Y2492418D3*
Y2238418D3*
Y1984418D3*
Y1730418D3*
Y1476418D3*
Y1222418D3*
Y968418D3*
D64*
X683312Y2492936D3*
D59*
X429312Y2492958D3*
X175312Y2492981D3*
X-78688Y2493004D3*
X-332688Y2493026D3*
X-586688Y2493049D3*
X-840688Y2493072D3*
X-1094688Y2493094D3*
X-1094756Y1731094D3*
X-840756Y1731072D3*
X-586756Y1731049D3*
X-332756Y1731026D3*
X-78756Y1731004D3*
X175244Y1730981D3*
X429244Y1730958D3*
X683244Y1730936D3*
D24*
X5064808Y4461435D3*
D59*
X4810808D3*
X4556808D3*
D24*
X-2798188Y2682938D3*
D59*
Y2428938D3*
Y2174938D3*
Y1920938D3*
Y1666938D3*
Y1412938D3*
Y1158938D3*
Y904938D3*
X-2036188D3*
Y1158938D3*
Y1412938D3*
Y1666938D3*
Y1920938D3*
Y2174938D3*
Y2428938D3*
Y2682938D3*
D24*
X6239562Y4461435D3*
D59*
X5985562D3*
X5731562D3*
X5477562D3*
D24*
X2461312D3*
D59*
X2207312D3*
X1953312D3*
D24*
X80062D3*
D59*
X-173938D3*
X-427938D3*
D24*
X7223812D3*
D59*
X6969812D3*
X6715812D3*
D24*
X-4512692Y2682935D3*
D59*
Y2428935D3*
Y2174935D3*
D24*
X-3761688Y4461435D3*
D59*
X-4015688D3*
X-4269688D3*
X-4523688D3*
D24*
X1445315D3*
D59*
X1191315D3*
X937315D3*
X683315D3*
D24*
X-2745692D3*
D59*
X-2999692D3*
X-3253692D3*
D24*
X-967685D3*
D59*
X-1221685D3*
X-1475685D3*
X-1729685D3*
D24*
X-4512692Y1666935D3*
D59*
Y1412935D3*
Y1158935D3*
Y904935D3*
D24*
X4048812Y4461435D3*
D59*
X3794812D3*
X3540812D3*
X3286812D3*
D24*
X3255065Y2778688D3*
D59*
X3509065D3*
D24*
X4271058Y651435D3*
D59*
X4017058D3*
D24*
X7065062Y2492938D3*
D59*
X6811062D3*
X6557062D3*
X6303062D3*
X6049062D3*
X5795062D3*
X5541062D3*
X5287062D3*
X5033062D3*
X4779062D3*
X4525062D3*
X4271062D3*
X4017062D3*
X3763062D3*
X3509062D3*
Y968938D3*
X3763062D3*
X4017062D3*
X4271062D3*
X4525062D3*
X4779062D3*
X5033062D3*
X5287062D3*
X5541062D3*
X5795062D3*
X6049062D3*
X6303062D3*
X6557062D3*
X6811062D3*
X7065062D3*
D30*
X7319062Y2492938D3*
Y968938D3*
X3255062D3*
Y2492938D3*
D57*
X-5619065Y1810315D3*
D55*
Y1210315D3*
D53*
X-5149065Y1510315D3*
D51*
X-5968305Y2921572D3*
D49*
Y2411572D3*
X-5143305D3*
Y2921572D3*
D48*
X-6857312Y1667438D3*
D47*
X-6349312D3*
D48*
X-6603281Y3620075D3*
D47*
X-6603337Y4128075D3*
D46*
X-6571568Y2540562D3*
D44*
Y3048562D3*
Y2794562D3*
D24*
X5445808Y3032685D3*
D59*
X5699808D3*
D24*
X7223808Y3064435D3*
D59*
Y2810435D3*
D24*
X3286815Y3032685D3*
D59*
X3540815D3*
D24*
X5064808Y3048565D3*
D59*
X4810808D3*
D24*
X683308Y3032685D3*
D59*
X937308D3*
D24*
X2461315Y3064435D3*
D59*
X2715315D3*
D24*
X-1729688Y3000935D3*
D59*
X-1475688D3*
D24*
X48308Y3032685D3*
D59*
X302308D3*
D24*
X-4523688D3*
D59*
X-4269688D3*
D24*
X-2745688Y3064435D3*
D59*
X-2491688D3*
D24*
X-3126692Y905438D3*
D59*
Y1159438D3*
D24*
Y2683438D3*
D59*
Y2937438D3*
D24*
X-5968318Y3953438D3*
D59*
Y4207438D3*
Y4461438D3*
D24*
X-5095185Y4461432D3*
D59*
X-5349185D3*
X-5603185D3*
D24*
X5429938Y2762812D3*
D59*
X5175938D3*
X4921938D3*
X4667938D3*
D42*
X5509312Y651432D3*
D40*
X4747312D3*
D42*
X4493308Y2778688D3*
D40*
X3731308D3*
D24*
X5763312Y619685D3*
D59*
X6017312D3*
X6271312D3*
X6525312D3*
D23*
X2726315Y2746438D3*
Y4460935D3*
X-3904562Y4651935D3*
D31*
X-6873185Y587935D3*
X7477812D3*
Y4651935D3*
X-6873185D3*
M02*
