M48
METRIC,0000.00
T01C0.559
T02C0.82
T03C0.9
T04C1.0
T05C1.2
T06C1.651
T07C3.0
%
T01
X+005509Y+000651
X+004747Y+000651
X+004493Y+002779
X+003731Y+002779
T02
X-005968Y+002922
X-005968Y+002412
X-005143Y+002412
X-005143Y+002922
T03
X-004513Y+003318
X-004259Y+003318
X-004005Y+003318
X-003751Y+003318
X-003497Y+003318
X-003243Y+003318
X-002989Y+003318
X-002735Y+003318
X-002746Y+003064
X-002492Y+003064
X-002798Y+002683
X-002798Y+002429
X-002798Y+002175
X-002798Y+001921
X-002798Y+001667
X-002798Y+001413
X-002798Y+001159
X-002798Y+000905
X-003127Y+000905
X-003370Y+000905
X-003370Y+001159
X-003127Y+001159
X-003370Y+001413
X-003370Y+001667
X-003370Y+001921
X-003370Y+002175
X-003370Y+002429
X-003370Y+002683
X-003127Y+002683
X-003127Y+002937
X-004132Y+002683
X-004132Y+002429
X-004132Y+002175
X-004132Y+001921
X-004132Y+001667
X-004132Y+001413
X-004132Y+001159
X-004132Y+000905
X-004513Y+000905
X-004513Y+001159
X-004513Y+001413
X-004513Y+001667
X-004513Y+002175
X-004513Y+002429
X-004513Y+002683
X-004524Y+003033
X-004270Y+003033
X-004259Y+004080
X-004513Y+004080
X-004524Y+004461
X-004270Y+004461
X-004016Y+004461
X-003905Y+004652
X-003762Y+004461
X-003751Y+004080
X-003497Y+004080
X-003243Y+004080
X-002989Y+004080
X-002735Y+004080
X-002746Y+004461
X-003000Y+004461
X-003254Y+004461
X-004005Y+004080
X-005095Y+004461
X-005349Y+004461
X-005603Y+004461
X-005968Y+004461
X-005968Y+004207
X-005968Y+003953
X-006603Y+004128
X-006603Y+003620
X-006349Y+001667
X-006857Y+001667
X-002036Y+001667
X-002036Y+001413
X-002036Y+001159
X-002036Y+000905
X-002036Y+001921
X-002036Y+002175
X-002036Y+002429
X-002036Y+002683
X-001730Y+003001
X-001476Y+003001
X-001465Y+003318
X-001719Y+003318
X-001211Y+003318
X-000957Y+003318
X-000703Y+003318
X-000449Y+003318
X-000195Y+003318
X+000059Y+003318
X+000048Y+003033
X+000302Y+003033
X+000683Y+003033
X+000937Y+003033
X+000948Y+003318
X+000694Y+003318
X+001202Y+003318
X+001456Y+003318
X+001710Y+003318
X+001964Y+003318
X+002218Y+003318
X+002472Y+003318
X+002461Y+003064
X+002715Y+003064
X+002726Y+002746
X+002345Y+002746
X+002345Y+002492
X+002345Y+002238
X+002345Y+001984
X+002345Y+001730
X+002345Y+001476
X+002345Y+001222
X+002345Y+000968
X+001583Y+000968
X+001583Y+001222
X+001583Y+001476
X+001583Y+001730
X+001583Y+001984
X+001583Y+002238
X+001583Y+002492
X+001583Y+002746
X+000683Y+002493
X+000429Y+002493
X+000175Y+002493
X-000079Y+002493
X-000333Y+002493
X-000587Y+002493
X-000841Y+002493
X-001095Y+002493
X-001095Y+001731
X-000841Y+001731
X-000587Y+001731
X-000333Y+001731
X-000079Y+001731
X+000175Y+001731
X+000429Y+001731
X+000683Y+001731
X+000694Y+004080
X+000948Y+004080
X+001202Y+004080
X+001456Y+004080
X+001710Y+004080
X+001964Y+004080
X+002218Y+004080
X+002472Y+004080
X+002461Y+004461
X+002207Y+004461
X+001953Y+004461
X+001445Y+004461
X+001191Y+004461
X+000937Y+004461
X+000683Y+004461
X+000080Y+004461
X-000174Y+004461
X-000428Y+004461
X-000449Y+004080
X-000703Y+004080
X-000957Y+004080
X-001211Y+004080
X-001465Y+004080
X-001719Y+004080
X-001730Y+004461
X-001476Y+004461
X-001222Y+004461
X-000968Y+004461
X-000195Y+004080
X+000059Y+004080
X+002726Y+004461
X+003287Y+004461
X+003541Y+004461
X+003795Y+004461
X+004049Y+004461
X+004060Y+004080
X+003806Y+004080
X+003552Y+004080
X+003298Y+004080
X+003298Y+003318
X+003552Y+003318
X+003806Y+003318
X+004060Y+003318
X+004314Y+003318
X+004568Y+003318
X+004822Y+003318
X+005076Y+003318
X+005065Y+003049
X+004811Y+003049
X+004922Y+002763
X+005176Y+002763
X+005430Y+002763
X+005446Y+003033
X+005700Y+003033
X+005711Y+003318
X+005457Y+003318
X+005965Y+003318
X+006219Y+003318
X+006473Y+003318
X+006727Y+003318
X+006981Y+003318
X+007235Y+003318
X+007224Y+003064
X+007224Y+002810
X+007065Y+002493
X+006811Y+002493
X+006557Y+002493
X+006303Y+002493
X+006049Y+002493
X+005795Y+002493
X+005541Y+002493
X+005287Y+002493
X+005033Y+002493
X+004779Y+002493
X+004525Y+002493
X+004271Y+002493
X+004017Y+002493
X+003763Y+002493
X+003509Y+002493
X+003509Y+002779
X+003255Y+002779
X+003287Y+003033
X+003541Y+003033
X+004668Y+002763
X+004568Y+004080
X+004314Y+004080
X+004557Y+004461
X+004811Y+004461
X+005065Y+004461
X+005076Y+004080
X+004822Y+004080
X+005457Y+004080
X+005711Y+004080
X+005965Y+004080
X+006219Y+004080
X+006473Y+004080
X+006727Y+004080
X+006981Y+004080
X+007235Y+004080
X+007224Y+004461
X+006970Y+004461
X+006716Y+004461
X+006240Y+004461
X+005986Y+004461
X+005732Y+004461
X+005478Y+004461
X+005541Y+000969
X+005287Y+000969
X+005033Y+000969
X+004779Y+000969
X+004525Y+000969
X+004271Y+000969
X+004017Y+000969
X+003763Y+000969
X+003509Y+000969
X+004017Y+000651
X+004271Y+000651
X+005763Y+000620
X+006017Y+000620
X+006271Y+000620
X+006525Y+000620
X+006557Y+000969
X+006811Y+000969
X+007065Y+000969
X+006303Y+000969
X+006049Y+000969
X+005795Y+000969
T04
X-005469Y+001810G85X-005769Y+001810
X-005149Y+001635G85X-005149Y+001385
X-005494Y+001210G85X-005744Y+001210
T05
X-006572Y+002541
X-006572Y+002795
X-006572Y+003049
T06
X+007319Y+002493
X+007319Y+000969
X+003255Y+000969
X+003255Y+002493
T07
X-006873Y+000588
X-006873Y+004652
X+007478Y+004652
X+007478Y+000588
T00
M30
