G04 DipTrace Beta 3.9.0.1*
G04 Top.gbr*
%MOMM*%
G04 #@! TF.FileFunction,Copper,L1,Top*
G04 #@! TF.Part,Single*
%AMOUTLINE0*
4,1,4,
-0.74993,0.75007,
0.75007,0.74993,
0.74993,-0.75007,
-0.75007,-0.74993,
-0.74993,0.75007,
0*%
G04 #@! TA.AperFunction,ComponentPad*
%ADD15R,1.5X1.5*%
%ADD16C,1.5*%
%ADD17O,5.0X2.0*%
%ADD18O,4.5X2.0*%
%ADD19O,2.0X4.5*%
%ADD21R,1.23X1.23*%
%ADD22C,1.23*%
%ADD23C,1.6*%
%ADD24R,1.6X1.6*%
%ADD25R,1.8X1.8*%
%ADD26C,1.8*%
%ADD27C,1.27*%
%ADD28C,1.27*%
%ADD29C,1.5*%
%ADD63OUTLINE0*%
%FSLAX35Y35*%
G04*
G71*
G90*
G75*
G01*
G04 Top*
%LPD*%
D15*
X-4512685Y3317935D3*
D16*
X-4258685D3*
X-4004685D3*
X-3750685D3*
X-3496685D3*
X-3242685D3*
X-2988685D3*
X-2734685D3*
Y4079935D3*
X-2988685D3*
X-3242685D3*
X-3496685D3*
X-3750685D3*
X-4004685D3*
X-4258685D3*
X-4512685D3*
D15*
X-3369692Y904938D3*
D16*
Y1158938D3*
Y1412938D3*
Y1666938D3*
Y1920938D3*
Y2174938D3*
Y2428938D3*
Y2682938D3*
X-4131692D3*
Y2428938D3*
Y2174938D3*
Y1920938D3*
Y1666938D3*
Y1412938D3*
Y1158938D3*
Y904938D3*
D15*
X-1718688Y3317935D3*
D16*
X-1464688D3*
X-1210688D3*
X-956688D3*
X-702688D3*
X-448688D3*
X-194688D3*
X59312D3*
Y4079935D3*
X-194688D3*
X-448688D3*
X-702688D3*
X-956688D3*
X-1210688D3*
X-1464688D3*
X-1718688D3*
D15*
X3297808Y3317935D3*
D16*
X3551808D3*
X3805808D3*
X4059808D3*
X4313808D3*
X4567808D3*
X4821808D3*
X5075808D3*
Y4079935D3*
X4821808D3*
X4567808D3*
X4313808D3*
X4059808D3*
X3805808D3*
X3551808D3*
X3297808D3*
D15*
X694312Y3317935D3*
D16*
X948312D3*
X1202312D3*
X1456312D3*
X1710312D3*
X1964312D3*
X2218312D3*
X2472312D3*
Y4079935D3*
X2218312D3*
X1964312D3*
X1710312D3*
X1456312D3*
X1202312D3*
X948312D3*
X694312D3*
D15*
X5456812Y3317935D3*
D16*
X5710812D3*
X5964812D3*
X6218812D3*
X6472812D3*
X6726812D3*
X6980812D3*
X7234812D3*
Y4079935D3*
X6980812D3*
X6726812D3*
X6472812D3*
X6218812D3*
X5964812D3*
X5710812D3*
X5456812D3*
D15*
X2345268Y968418D3*
D16*
Y1222418D3*
Y1476418D3*
Y1730418D3*
Y1984418D3*
Y2238418D3*
Y2492418D3*
Y2746418D3*
X1583268D3*
Y2492418D3*
Y2238418D3*
Y1984418D3*
Y1730418D3*
Y1476418D3*
Y1222418D3*
Y968418D3*
D63*
X683312Y2492936D3*
D16*
X429312Y2492958D3*
X175312Y2492981D3*
X-78688Y2493004D3*
X-332688Y2493026D3*
X-586688Y2493049D3*
X-840688Y2493072D3*
X-1094688Y2493094D3*
X-1094756Y1731094D3*
X-840756Y1731072D3*
X-586756Y1731049D3*
X-332756Y1731026D3*
X-78756Y1731004D3*
X175244Y1730981D3*
X429244Y1730958D3*
X683244Y1730936D3*
D15*
X5064808Y4461435D3*
D16*
X4810808D3*
X4556808D3*
D15*
X-2798188Y2682938D3*
D16*
Y2428938D3*
Y2174938D3*
Y1920938D3*
Y1666938D3*
Y1412938D3*
Y1158938D3*
Y904938D3*
X-2036188D3*
Y1158938D3*
Y1412938D3*
Y1666938D3*
Y1920938D3*
Y2174938D3*
Y2428938D3*
Y2682938D3*
D15*
X6239562Y4461435D3*
D16*
X5985562D3*
X5731562D3*
X5477562D3*
D15*
X2461312D3*
D16*
X2207312D3*
X1953312D3*
D15*
X80062D3*
D16*
X-173938D3*
X-427938D3*
D15*
X7223812D3*
D16*
X6969812D3*
X6715812D3*
D15*
X-4512692Y2682935D3*
D16*
Y2428935D3*
Y2174935D3*
D15*
X-3761688Y4461435D3*
D16*
X-4015688D3*
X-4269688D3*
X-4523688D3*
D15*
X1445315D3*
D16*
X1191315D3*
X937315D3*
X683315D3*
D15*
X-2745692D3*
D16*
X-2999692D3*
X-3253692D3*
D15*
X-967685D3*
D16*
X-1221685D3*
X-1475685D3*
X-1729685D3*
D15*
X-4512692Y1666935D3*
D16*
Y1412935D3*
Y1158935D3*
Y904935D3*
D15*
X4048812Y4461435D3*
D16*
X3794812D3*
X3540812D3*
X3286812D3*
D15*
X3255065Y2778688D3*
D16*
X3509065D3*
D15*
X4271058Y651435D3*
D16*
X4017058D3*
D15*
X7065062Y2492938D3*
D16*
X6811062D3*
X6557062D3*
X6303062D3*
X6049062D3*
X5795062D3*
X5541062D3*
X5287062D3*
X5033062D3*
X4779062D3*
X4525062D3*
X4271062D3*
X4017062D3*
X3763062D3*
X3509062D3*
Y968938D3*
X3763062D3*
X4017062D3*
X4271062D3*
X4525062D3*
X4779062D3*
X5033062D3*
X5287062D3*
X5541062D3*
X5795062D3*
X6049062D3*
X6303062D3*
X6557062D3*
X6811062D3*
X7065062D3*
D17*
X-5619065Y1810315D3*
D18*
Y1210315D3*
D19*
X-5149065Y1510315D3*
D21*
X-5968305Y2921572D3*
D22*
Y2411572D3*
X-5143305D3*
Y2921572D3*
D23*
X-6857312Y1667438D3*
D24*
X-6349312D3*
D23*
X-6603281Y3620075D3*
D24*
X-6603337Y4128075D3*
D25*
X-6571568Y2540562D3*
D26*
Y3048562D3*
Y2794562D3*
D15*
X5445808Y3032685D3*
D16*
X5699808D3*
D15*
X7223808Y3064435D3*
D16*
Y2810435D3*
D15*
X3286815Y3032685D3*
D16*
X3540815D3*
D15*
X5064808Y3048565D3*
D16*
X4810808D3*
D15*
X683308Y3032685D3*
D16*
X937308D3*
D15*
X2461315Y3064435D3*
D16*
X2715315D3*
D15*
X-1729688Y3000935D3*
D16*
X-1475688D3*
D15*
X48308Y3032685D3*
D16*
X302308D3*
D15*
X-4523688D3*
D16*
X-4269688D3*
D15*
X-2745688Y3064435D3*
D16*
X-2491688D3*
D15*
X-3126692Y905438D3*
D16*
Y1159438D3*
D15*
Y2683438D3*
D16*
Y2937438D3*
D15*
X-5968318Y3953438D3*
D16*
Y4207438D3*
Y4461438D3*
D15*
X-5095185Y4461432D3*
D16*
X-5349185D3*
X-5603185D3*
D15*
X5429938Y2762812D3*
D16*
X5175938D3*
X4921938D3*
X4667938D3*
D27*
X5509312Y651432D3*
D28*
X4747312D3*
D27*
X4493308Y2778688D3*
D28*
X3731308D3*
D15*
X5763312Y619685D3*
D16*
X6017312D3*
X6271312D3*
X6525312D3*
D29*
X2726315Y2746438D3*
Y4460935D3*
X-3904562Y4651935D3*
M02*
