G04 DipTrace Beta 3.9.0.1*
G04 TopSilk.gbr*
%MOMM*%
G04 #@! TF.FileFunction,Legend,Top*
G04 #@! TF.Part,Single*
%ADD10C,0.01*%
%ADD12C,0.12*%
%ADD62C,0.13889*%
%FSLAX35Y35*%
G04*
G71*
G90*
G75*
G01*
G04 TopSilk*
%LPD*%
X-4643685Y3958945D2*
D10*
X-2603685D1*
Y3438925D2*
Y3958945D1*
X-4643685Y3438925D2*
X-2603685D1*
X-4643685D2*
Y3638925D1*
Y3958945D2*
Y3758945D1*
Y3638925D2*
G03X-4643685Y3758945I-33J60010D01*
G01*
X-4010702Y773938D2*
Y2813938D1*
X-3490682D2*
X-4010702D1*
X-3490682Y773938D2*
Y2813938D1*
Y773938D2*
X-3690682D1*
X-4010702D2*
X-3810702D1*
X-3690682D2*
G03X-3810702Y773938I-60010J-33D01*
G01*
X-1849688Y3958945D2*
X190312D1*
Y3438925D2*
Y3958945D1*
X-1849688Y3438925D2*
X190312D1*
X-1849688D2*
Y3638925D1*
Y3958945D2*
Y3758945D1*
Y3638925D2*
G03X-1849688Y3758945I-33J60010D01*
G01*
X3166808Y3958945D2*
X5206808D1*
Y3438925D2*
Y3958945D1*
X3166808Y3438925D2*
X5206808D1*
X3166808D2*
Y3638925D1*
Y3958945D2*
Y3758945D1*
Y3638925D2*
G03X3166808Y3758945I-33J60010D01*
G01*
X563312Y3958945D2*
X2603312D1*
Y3438925D2*
Y3958945D1*
X563312Y3438925D2*
X2603312D1*
X563312D2*
Y3638925D1*
Y3958945D2*
Y3758945D1*
Y3638925D2*
G03X563312Y3758945I-33J60010D01*
G01*
X5325812Y3958945D2*
X7365812D1*
Y3438925D2*
Y3958945D1*
X5325812Y3438925D2*
X7365812D1*
X5325812D2*
Y3638925D1*
Y3958945D2*
Y3758945D1*
Y3638925D2*
G03X5325812Y3758945I-33J60010D01*
G01*
X1704258Y837418D2*
Y2877418D1*
X2224278D2*
X1704258D1*
X2224278Y837418D2*
Y2877418D1*
Y837418D2*
X2024278D1*
X1704258D2*
X1904258D1*
X2024278D2*
G03X1904258Y837418I-60010J-33D01*
G01*
X814255Y1851914D2*
X-1225745Y1852096D1*
X-1225699Y2372116D2*
X-1225745Y1852096D1*
X814301Y2371934D2*
X-1225699Y2372116D1*
X814301Y2371934D2*
X814284Y2171934D1*
X814255Y1851914D2*
X814273Y2051914D1*
X814284Y2171934D2*
G03X814273Y2051914I28J-60010D01*
G01*
X5191808Y4588435D2*
Y4334435D1*
X4429808D1*
Y4588435D2*
Y4334435D1*
X5191808Y4588435D2*
X4429808D1*
X-2157178Y2813938D2*
Y773938D1*
X-2677198D2*
X-2157178D1*
X-2677198Y2813938D2*
Y773938D1*
Y2813938D2*
X-2477198D1*
X-2157178D2*
X-2357178D1*
X-2477198D2*
G03X-2357178Y2813938I60010J33D01*
G01*
X5350562Y4588435D2*
Y4334435D1*
X6366562Y4588435D2*
X5350562D1*
X6366562Y4334435D2*
X5350562D1*
X6366562Y4588435D2*
Y4334435D1*
X2588312Y4588435D2*
Y4334435D1*
X1826312D1*
Y4588435D2*
Y4334435D1*
X2588312Y4588435D2*
X1826312D1*
X207062D2*
Y4334435D1*
X-554938D1*
Y4588435D2*
Y4334435D1*
X207062Y4588435D2*
X-554938D1*
X7350812D2*
Y4334435D1*
X6588812D1*
Y4588435D2*
Y4334435D1*
X7350812Y4588435D2*
X6588812D1*
X-4639692Y2809935D2*
X-4385692D1*
Y2047935D1*
X-4639692D2*
X-4385692D1*
X-4639692Y2809935D2*
Y2047935D1*
X-4650688Y4588435D2*
Y4334435D1*
X-3634688Y4588435D2*
X-4650688D1*
X-3634688Y4334435D2*
X-4650688D1*
X-3634688Y4588435D2*
Y4334435D1*
X556315Y4588435D2*
Y4334435D1*
X1572315Y4588435D2*
X556315D1*
X1572315Y4334435D2*
X556315D1*
X1572315Y4588435D2*
Y4334435D1*
X-2618692Y4588435D2*
Y4334435D1*
X-3380692D1*
Y4588435D2*
Y4334435D1*
X-2618692Y4588435D2*
X-3380692D1*
X-1856685D2*
Y4334435D1*
X-840685Y4588435D2*
X-1856685D1*
X-840685Y4334435D2*
X-1856685D1*
X-840685Y4588435D2*
Y4334435D1*
X-4639692Y777935D2*
X-4385692D1*
X-4639692Y1793935D2*
Y777935D1*
X-4385692Y1793935D2*
Y777935D1*
X-4639692Y1793935D2*
X-4385692D1*
X3159812Y4588435D2*
Y4334435D1*
X4175812Y4588435D2*
X3159812D1*
X4175812Y4334435D2*
X3159812D1*
X4175812Y4588435D2*
Y4334435D1*
X3636065Y2651688D2*
Y2905688D1*
X3128065Y2651688D2*
X3636065D1*
X3128065D2*
Y2905688D1*
X3636065D1*
X3890058Y778435D2*
Y524435D1*
X4398058Y778435D2*
X3890058D1*
X4398058D2*
Y524435D1*
X3890058D1*
X3128212Y2619938D2*
Y841938D1*
X7446062D1*
Y2619938D1*
X3128212D1*
X-6079065Y430315D2*
D12*
Y1890315D1*
X-5855805D1*
X-5382325D2*
X-5159065D1*
Y1752892D1*
Y1267738D2*
Y430315D1*
X-6079065D1*
X-5230805Y3001572D2*
Y3092572D1*
X-5880805D1*
Y3001572D1*
X-5230805Y2331572D2*
Y2240572D1*
X-5880805D1*
Y2331572D1*
G36*
X-6066805Y2946572D2*
X-6063542Y2946358D1*
X-6060335Y2945720D1*
X-6057238Y2944669D1*
X-6054305Y2943222D1*
X-6051586Y2941406D1*
X-6049127Y2939249D1*
X-6046971Y2936791D1*
X-6045154Y2934072D1*
X-6043708Y2931139D1*
X-6042657Y2928042D1*
X-6042019Y2924835D1*
X-6041805Y2921572D1*
X-6042019Y2918309D1*
X-6042657Y2915101D1*
X-6043708Y2912005D1*
X-6045154Y2909072D1*
X-6046971Y2906353D1*
X-6049127Y2903894D1*
X-6051586Y2901738D1*
X-6054305Y2899921D1*
X-6057238Y2898475D1*
X-6060335Y2897424D1*
X-6063542Y2896786D1*
X-6066805Y2896572D1*
D1*
X-6070068Y2896786D1*
X-6073275Y2897424D1*
X-6076372Y2898475D1*
X-6079305Y2899921D1*
X-6082024Y2901738D1*
X-6084483Y2903894D1*
X-6086639Y2906353D1*
X-6088456Y2909072D1*
X-6089902Y2912005D1*
X-6090953Y2915101D1*
X-6091591Y2918309D1*
X-6091805Y2921572D1*
X-6091591Y2924835D1*
X-6090953Y2928042D1*
X-6089902Y2931139D1*
X-6088456Y2934072D1*
X-6086639Y2936791D1*
X-6084483Y2939249D1*
X-6082024Y2941406D1*
X-6079305Y2943222D1*
X-6076372Y2944669D1*
X-6073275Y2945720D1*
X-6070068Y2946358D1*
X-6066805Y2946572D1*
D1*
G37*
X-5786928Y2918315D2*
D10*
X-5846915D1*
X-5816878Y2888312D2*
Y2948322D1*
X-5816875Y2454068D2*
Y2384122D1*
X-5302745Y2977418D2*
G02X-5302745Y2911388I-19582J-33015D01*
G01*
G03X-5294092Y2859952I8609J-24998D01*
G01*
X-5301145Y2459818D2*
G02X-5301145Y2393788I-19582J-33015D01*
G01*
G03X-5292492Y2342352I8609J-24998D01*
G01*
X-6143292Y1697462D2*
Y1637415D1*
X-6113328Y1667438D2*
X-6173342D1*
X-6603292Y2048438D2*
X-6603328D1*
G03X-6603328Y1286438I0J-381000D01*
G01*
X-6603292D1*
G03X-6603292Y2048438I0J381000D01*
G01*
X-6633383Y4334092D2*
X-6573337Y4334098D1*
X-6603363Y4364058D2*
X-6603357Y4304045D1*
X-6984309Y3874053D2*
Y3874016D1*
G03X-6222309Y3874101I381000J42D01*
G01*
Y3874137D1*
G03X-6984309Y3874053I-381000J-42D01*
G01*
X-6761425Y2274562D2*
Y3314562D1*
X-6861568Y2274562D2*
Y3314562D1*
X-6401568Y2274562D2*
Y3314562D1*
Y2274562D2*
X-6861568D1*
X-6401568Y3314562D2*
X-6861568D1*
X5826808Y2905685D2*
Y3159685D1*
X5318808Y2905685D2*
X5826808D1*
X5318808D2*
Y3159685D1*
X5826808D1*
X7096808Y2683435D2*
X7350808D1*
X7096808Y3191435D2*
Y2683435D1*
Y3191435D2*
X7350808D1*
Y2683435D1*
X3667815Y2905685D2*
Y3159685D1*
X3159815Y2905685D2*
X3667815D1*
X3159815D2*
Y3159685D1*
X3667815D1*
X4683808Y3175565D2*
Y2921565D1*
X5191808Y3175565D2*
X4683808D1*
X5191808D2*
Y2921565D1*
X4683808D1*
X1064308Y2905685D2*
Y3159685D1*
X556308Y2905685D2*
X1064308D1*
X556308D2*
Y3159685D1*
X1064308D1*
X2842315Y2937435D2*
Y3191435D1*
X2334315Y2937435D2*
X2842315D1*
X2334315D2*
Y3191435D1*
X2842315D1*
X-1348688Y2873935D2*
Y3127935D1*
X-1856688Y2873935D2*
X-1348688D1*
X-1856688D2*
Y3127935D1*
X-1348688D1*
X429308Y2905685D2*
Y3159685D1*
X-78692Y2905685D2*
X429308D1*
X-78692D2*
Y3159685D1*
X429308D1*
X-4142688Y2905685D2*
Y3159685D1*
X-4650688Y2905685D2*
X-4142688D1*
X-4650688D2*
Y3159685D1*
X-4142688D1*
X-2364688Y2937435D2*
Y3191435D1*
X-2872688Y2937435D2*
X-2364688D1*
X-2872688D2*
Y3191435D1*
X-2364688D1*
X-2999692Y1286438D2*
X-3253692D1*
X-2999692Y778438D2*
Y1286438D1*
Y778438D2*
X-3253692D1*
Y1286438D1*
X-2999692Y3064438D2*
X-3253692D1*
X-2999692Y2556438D2*
Y3064438D1*
Y2556438D2*
X-3253692D1*
Y3064438D1*
X-5841318Y3826438D2*
X-6095318D1*
Y4588438D1*
X-5841318D2*
X-6095318D1*
X-5841318Y3826438D2*
Y4588438D1*
X-4968185Y4588432D2*
Y4334432D1*
X-5730185D1*
Y4588432D2*
Y4334432D1*
X-4968185Y4588432D2*
X-5730185D1*
X4540938Y2889812D2*
Y2635812D1*
X5556938Y2889812D2*
X4540938D1*
X5556938Y2635812D2*
X4540938D1*
X5556938Y2889812D2*
Y2635812D1*
X5331892Y575232D2*
Y727632D1*
X4924732Y575232D2*
X5331892D1*
X4924732D2*
Y727632D1*
X5331892D1*
X4315888Y2702488D2*
Y2854888D1*
X3908728Y2702488D2*
X4315888D1*
X3908728D2*
Y2854888D1*
X4315888D1*
X6652312Y492685D2*
Y746685D1*
X5636312Y492685D2*
X6652312D1*
X5636312Y746685D2*
X6652312D1*
X5636312Y492685D2*
Y746685D1*
X-4826812Y3534044D2*
D62*
X-4699203D1*
X-4784276Y3570516D2*
X-4723489Y3534044D1*
X-4747776Y3548616D2*
X-4699203Y3574138D1*
X-4802385Y3590805D2*
X-4808562Y3598133D1*
X-4826672Y3609083D1*
X-4699203D1*
X-4826672Y3669465D2*
Y3633078D1*
X-4772062Y3629456D1*
X-4778099Y3633078D1*
X-4784276Y3644028D1*
Y3654893D1*
X-4778099Y3665843D1*
X-4766026Y3673171D1*
X-4747776Y3676793D1*
X-4735703D1*
X-4717453Y3673171D1*
X-4705239Y3665843D1*
X-4699203Y3654893D1*
Y3644028D1*
X-4705239Y3633078D1*
X-4711416Y3629456D1*
X-4723489Y3625749D1*
X-4826672Y3737176D2*
Y3700788D1*
X-4772062Y3697166D1*
X-4778099Y3700788D1*
X-4784276Y3711738D1*
Y3722604D1*
X-4778099Y3733554D1*
X-4766026Y3740882D1*
X-4747776Y3744504D1*
X-4735703D1*
X-4717453Y3740882D1*
X-4705239Y3733554D1*
X-4699203Y3722604D1*
Y3711738D1*
X-4705239Y3700788D1*
X-4711416Y3697166D1*
X-4723489Y3693460D1*
X-4826812Y3761171D2*
X-4820776Y3764792D1*
X-4826812Y3768499D1*
X-4832989Y3764792D1*
X-4826812Y3761171D1*
X-4784276Y3764792D2*
X-4699203D1*
X-4826812Y3828881D2*
X-4699203D1*
X-4766026D2*
X-4778239Y3821637D1*
X-4784276Y3814309D1*
Y3803359D1*
X-4778239Y3796115D1*
X-4766026Y3788787D1*
X-4747776Y3785165D1*
X-4735703D1*
X-4717453Y3788787D1*
X-4705379Y3796115D1*
X-4699203Y3803359D1*
Y3814309D1*
X-4705379Y3821637D1*
X-4717453Y3828881D1*
X-4802385Y3845548D2*
X-4808562Y3852876D1*
X-4826672Y3863826D1*
X-4699203D1*
X-3585801Y590811D2*
Y718421D1*
X-3622273Y633348D2*
X-3585801Y694134D1*
X-3600373Y669848D2*
X-3625895Y718421D1*
X-3642561Y615238D2*
X-3649889Y609061D1*
X-3660839Y590952D1*
Y718421D1*
X-3721222Y590952D2*
X-3684834D1*
X-3681212Y645561D1*
X-3684834Y639525D1*
X-3695784Y633348D1*
X-3706650D1*
X-3717600Y639525D1*
X-3724928Y651598D1*
X-3728550Y669848D1*
Y681921D1*
X-3724928Y700171D1*
X-3717600Y712384D1*
X-3706650Y718421D1*
X-3695784D1*
X-3684834Y712384D1*
X-3681212Y706207D1*
X-3677506Y694134D1*
X-3788932Y590952D2*
X-3752545D1*
X-3748923Y645561D1*
X-3752545Y639525D1*
X-3763495Y633348D1*
X-3774361D1*
X-3785311Y639525D1*
X-3792639Y651598D1*
X-3796261Y669848D1*
Y681921D1*
X-3792639Y700171D1*
X-3785311Y712384D1*
X-3774361Y718421D1*
X-3763495D1*
X-3752545Y712384D1*
X-3748923Y706207D1*
X-3745217Y694134D1*
X-3812927Y590811D2*
X-3816549Y596848D1*
X-3820255Y590811D1*
X-3816549Y584634D1*
X-3812927Y590811D1*
X-3816549Y633348D2*
Y718421D1*
X-3880638Y590811D2*
Y718421D1*
Y651598D2*
X-3873394Y639384D1*
X-3866066Y633348D1*
X-3855116D1*
X-3847872Y639384D1*
X-3840544Y651598D1*
X-3836922Y669848D1*
Y681921D1*
X-3840544Y700171D1*
X-3847872Y712244D1*
X-3855116Y718421D1*
X-3866066D1*
X-3873394Y712244D1*
X-3880638Y700171D1*
X-3897304Y615238D2*
X-3904632Y609061D1*
X-3915582Y590952D1*
Y718421D1*
X-2032815Y3534044D2*
X-1905206D1*
X-1990279Y3570516D2*
X-1929492Y3534044D1*
X-1953779Y3548616D2*
X-1905206Y3574138D1*
X-2008389Y3590805D2*
X-2014565Y3598133D1*
X-2032675Y3609083D1*
X-1905206D1*
X-2032675Y3669465D2*
Y3633078D1*
X-1978065Y3629456D1*
X-1984102Y3633078D1*
X-1990279Y3644028D1*
Y3654893D1*
X-1984102Y3665843D1*
X-1972029Y3673171D1*
X-1953779Y3676793D1*
X-1941706D1*
X-1923456Y3673171D1*
X-1911242Y3665843D1*
X-1905206Y3654893D1*
Y3644028D1*
X-1911242Y3633078D1*
X-1917419Y3629456D1*
X-1929492Y3625749D1*
X-2032675Y3737176D2*
Y3700788D1*
X-1978065Y3697166D1*
X-1984102Y3700788D1*
X-1990279Y3711738D1*
Y3722604D1*
X-1984102Y3733554D1*
X-1972029Y3740882D1*
X-1953779Y3744504D1*
X-1941706D1*
X-1923456Y3740882D1*
X-1911242Y3733554D1*
X-1905206Y3722604D1*
Y3711738D1*
X-1911242Y3700788D1*
X-1917419Y3697166D1*
X-1929492Y3693460D1*
X-2032815Y3761171D2*
X-2026779Y3764792D1*
X-2032815Y3768499D1*
X-2038992Y3764792D1*
X-2032815Y3761171D1*
X-1990279Y3764792D2*
X-1905206D1*
X-2032815Y3828881D2*
X-1905206D1*
X-1972029D2*
X-1984242Y3821637D1*
X-1990279Y3814309D1*
Y3803359D1*
X-1984242Y3796115D1*
X-1972029Y3788787D1*
X-1953779Y3785165D1*
X-1941706D1*
X-1923456Y3788787D1*
X-1911383Y3796115D1*
X-1905206Y3803359D1*
Y3814309D1*
X-1911383Y3821637D1*
X-1923456Y3828881D1*
X-2008389Y3845548D2*
X-2014565Y3852876D1*
X-2032675Y3863826D1*
X-1905206D1*
X2983681Y3534044D2*
X3111291D1*
X3026218Y3570516D2*
X3087004Y3534044D1*
X3062718Y3548616D2*
X3111291Y3574138D1*
X3008108Y3590805D2*
X3001931Y3598133D1*
X2983822Y3609083D1*
X3111291D1*
X2983822Y3669465D2*
Y3633078D1*
X3038431Y3629456D1*
X3032395Y3633078D1*
X3026218Y3644028D1*
Y3654893D1*
X3032395Y3665843D1*
X3044468Y3673171D1*
X3062718Y3676793D1*
X3074791D1*
X3093041Y3673171D1*
X3105254Y3665843D1*
X3111291Y3654893D1*
Y3644028D1*
X3105254Y3633078D1*
X3099077Y3629456D1*
X3087004Y3625749D1*
X2983822Y3737176D2*
Y3700788D1*
X3038431Y3697166D1*
X3032395Y3700788D1*
X3026218Y3711738D1*
Y3722604D1*
X3032395Y3733554D1*
X3044468Y3740882D1*
X3062718Y3744504D1*
X3074791D1*
X3093041Y3740882D1*
X3105254Y3733554D1*
X3111291Y3722604D1*
Y3711738D1*
X3105254Y3700788D1*
X3099077Y3697166D1*
X3087004Y3693460D1*
X2983681Y3761171D2*
X2989718Y3764792D1*
X2983681Y3768499D1*
X2977504Y3764792D1*
X2983681Y3761171D1*
X3026218Y3764792D2*
X3111291D1*
X2983681Y3828881D2*
X3111291D1*
X3044468D2*
X3032254Y3821637D1*
X3026218Y3814309D1*
Y3803359D1*
X3032254Y3796115D1*
X3044468Y3788787D1*
X3062718Y3785165D1*
X3074791D1*
X3093041Y3788787D1*
X3105114Y3796115D1*
X3111291Y3803359D1*
Y3814309D1*
X3105114Y3821637D1*
X3093041Y3828881D1*
X3008108Y3845548D2*
X3001931Y3852876D1*
X2983822Y3863826D1*
X3111291D1*
X380185Y3534044D2*
X507794D1*
X422721Y3570516D2*
X483508Y3534044D1*
X459221Y3548616D2*
X507794Y3574138D1*
X404611Y3590805D2*
X398435Y3598133D1*
X380325Y3609083D1*
X507794D1*
X380325Y3669465D2*
Y3633078D1*
X434935Y3629456D1*
X428898Y3633078D1*
X422721Y3644028D1*
Y3654893D1*
X428898Y3665843D1*
X440971Y3673171D1*
X459221Y3676793D1*
X471294D1*
X489544Y3673171D1*
X501758Y3665843D1*
X507794Y3654893D1*
Y3644028D1*
X501758Y3633078D1*
X495581Y3629456D1*
X483508Y3625749D1*
X380325Y3737176D2*
Y3700788D1*
X434935Y3697166D1*
X428898Y3700788D1*
X422721Y3711738D1*
Y3722604D1*
X428898Y3733554D1*
X440971Y3740882D1*
X459221Y3744504D1*
X471294D1*
X489544Y3740882D1*
X501758Y3733554D1*
X507794Y3722604D1*
Y3711738D1*
X501758Y3700788D1*
X495581Y3697166D1*
X483508Y3693460D1*
X380185Y3761171D2*
X386221Y3764792D1*
X380185Y3768499D1*
X374008Y3764792D1*
X380185Y3761171D1*
X422721Y3764792D2*
X507794D1*
X380185Y3828881D2*
X507794D1*
X440971D2*
X428758Y3821637D1*
X422721Y3814309D1*
Y3803359D1*
X428758Y3796115D1*
X440971Y3788787D1*
X459221Y3785165D1*
X471294D1*
X489544Y3788787D1*
X501617Y3796115D1*
X507794Y3803359D1*
Y3814309D1*
X501617Y3821637D1*
X489544Y3828881D1*
X404611Y3845548D2*
X398435Y3852876D1*
X380325Y3863826D1*
X507794D1*
X5142685Y3534044D2*
X5270294D1*
X5185221Y3570516D2*
X5246008Y3534044D1*
X5221721Y3548616D2*
X5270294Y3574138D1*
X5167111Y3590805D2*
X5160935Y3598133D1*
X5142825Y3609083D1*
X5270294D1*
X5142825Y3669465D2*
Y3633078D1*
X5197435Y3629456D1*
X5191398Y3633078D1*
X5185221Y3644028D1*
Y3654893D1*
X5191398Y3665843D1*
X5203471Y3673171D1*
X5221721Y3676793D1*
X5233794D1*
X5252044Y3673171D1*
X5264258Y3665843D1*
X5270294Y3654893D1*
Y3644028D1*
X5264258Y3633078D1*
X5258081Y3629456D1*
X5246008Y3625749D1*
X5142825Y3737176D2*
Y3700788D1*
X5197435Y3697166D1*
X5191398Y3700788D1*
X5185221Y3711738D1*
Y3722604D1*
X5191398Y3733554D1*
X5203471Y3740882D1*
X5221721Y3744504D1*
X5233794D1*
X5252044Y3740882D1*
X5264258Y3733554D1*
X5270294Y3722604D1*
Y3711738D1*
X5264258Y3700788D1*
X5258081Y3697166D1*
X5246008Y3693460D1*
X5142685Y3761171D2*
X5148721Y3764792D1*
X5142685Y3768499D1*
X5136508Y3764792D1*
X5142685Y3761171D1*
X5185221Y3764792D2*
X5270294D1*
X5142685Y3828881D2*
X5270294D1*
X5203471D2*
X5191258Y3821637D1*
X5185221Y3814309D1*
Y3803359D1*
X5191258Y3796115D1*
X5203471Y3788787D1*
X5221721Y3785165D1*
X5233794D1*
X5252044Y3788787D1*
X5264117Y3796115D1*
X5270294Y3803359D1*
Y3814309D1*
X5264117Y3821637D1*
X5252044Y3828881D1*
X5167111Y3845548D2*
X5160935Y3852876D1*
X5142825Y3863826D1*
X5270294D1*
X2280963Y781901D2*
Y654291D1*
X2310107Y781901D1*
X2339251Y654291D1*
Y781901D1*
X2209631Y684614D2*
X2213253Y672541D1*
X2220581Y660328D1*
X2227824Y654291D1*
X2242396D1*
X2249724Y660328D1*
X2256968Y672541D1*
X2260674Y684614D1*
X2264296Y702864D1*
Y733328D1*
X2260674Y751437D1*
X2256968Y763651D1*
X2249724Y775724D1*
X2242396Y781901D1*
X2227824D1*
X2220581Y775724D1*
X2213253Y763651D1*
X2209631Y751437D1*
X2178392Y781901D2*
X2141920Y654432D1*
X2192964D1*
X2088781Y781901D2*
Y654432D1*
X2125253Y739364D1*
X2070588D1*
X2053921Y654291D2*
Y781901D1*
X2002877Y654291D2*
Y781901D1*
X2053921Y715078D2*
X2002877D1*
X1931545Y684614D2*
X1935167Y672541D1*
X1942495Y660328D1*
X1949739Y654291D1*
X1964310D1*
X1971639Y660328D1*
X1978882Y672541D1*
X1982589Y684614D1*
X1986210Y702864D1*
Y733328D1*
X1982589Y751437D1*
X1978882Y763651D1*
X1971639Y775724D1*
X1964310Y781901D1*
X1949739D1*
X1942495Y775724D1*
X1935167Y763651D1*
X1931545Y751437D1*
X1871162Y654432D2*
X1907550D1*
X1911172Y709041D1*
X1907550Y703005D1*
X1896600Y696828D1*
X1885734D1*
X1874784Y703005D1*
X1867456Y715078D1*
X1863834Y733328D1*
Y745401D1*
X1867456Y763651D1*
X1874784Y775864D1*
X1885734Y781901D1*
X1896600D1*
X1907550Y775864D1*
X1911172Y769687D1*
X1914878Y757614D1*
X1799746Y696828D2*
X1803452Y715078D1*
X1810696Y727291D1*
X1821646Y733328D1*
X1825267D1*
X1836217Y727291D1*
X1843461Y715078D1*
X1847167Y696828D1*
Y690791D1*
X1843461Y672541D1*
X1836217Y660468D1*
X1825267Y654432D1*
X1821646D1*
X1810696Y660468D1*
X1803452Y672541D1*
X1799746Y696828D1*
Y727291D1*
X1803452Y757614D1*
X1810696Y775864D1*
X1821646Y781901D1*
X1828889D1*
X1839839Y775864D1*
X1843461Y763651D1*
X1739363Y654432D2*
X1775751D1*
X1779373Y709041D1*
X1775751Y703005D1*
X1764801Y696828D1*
X1753935D1*
X1742985Y703005D1*
X1735657Y715078D1*
X1732035Y733328D1*
Y745401D1*
X1735657Y763651D1*
X1742985Y775864D1*
X1753935Y781901D1*
X1764801D1*
X1775751Y775864D1*
X1779373Y769687D1*
X1783079Y757614D1*
X1656996Y781901D2*
X1686225Y654291D1*
X1715368Y781901D1*
X1704418Y739364D2*
X1667946D1*
X1589286Y654291D2*
Y781901D1*
X1640330Y654291D1*
Y781901D1*
X869824Y2428614D2*
X997434Y2428603D1*
X869827Y2457758D1*
X997439Y2486890D1*
X869829Y2486902D1*
X967104Y2357273D2*
X979178Y2360894D1*
X991392Y2368221D1*
X997429Y2375464D1*
X997430Y2390036D1*
X991394Y2397365D1*
X979182Y2404610D1*
X967109Y2408317D1*
X948859Y2411940D1*
X918396Y2411943D1*
X900286Y2408323D1*
X888072Y2404618D1*
X875998Y2397375D1*
X869821Y2390047D1*
X869819Y2375475D1*
X875996Y2368231D1*
X888068Y2360902D1*
X900281Y2357279D1*
X869815Y2326043D2*
X997281Y2289560D1*
X997285Y2340604D1*
X869807Y2236432D2*
X997276Y2236421D1*
X912347Y2272901D1*
X912342Y2218235D1*
X997413Y2201561D2*
X869804Y2201572D1*
X997409Y2150517D2*
X869799Y2150528D1*
X936627Y2201566D2*
X936622Y2150522D1*
X967079Y2079187D2*
X979153Y2082808D1*
X991367Y2090135D1*
X997404Y2097378D1*
X997405Y2111950D1*
X991370Y2119279D1*
X979157Y2126524D1*
X967084Y2130231D1*
X948834Y2133854D1*
X918371Y2133857D1*
X900261Y2130237D1*
X888047Y2126532D1*
X875973Y2119289D1*
X869796Y2111961D1*
X869795Y2097389D1*
X875971Y2090145D1*
X888043Y2082816D1*
X900256Y2079193D1*
X997257Y2018802D2*
X997260Y2055190D1*
X942651Y2058816D1*
X948687Y2055194D1*
X954863Y2044243D1*
X954862Y2033378D1*
X948684Y2022428D1*
X936610Y2015101D1*
X918360Y2011481D1*
X906287Y2011482D1*
X888037Y2015105D1*
X875824Y2022435D1*
X869789Y2033385D1*
X869790Y2044251D1*
X875827Y2055200D1*
X882005Y2058822D1*
X894078Y2062527D1*
X954854Y1947389D2*
X936605Y1951097D1*
X924392Y1958342D1*
X918356Y1969292D1*
X918357Y1972914D1*
X924394Y1983864D1*
X936608Y1991106D1*
X954859Y1994811D1*
X960895Y1994810D1*
X979145Y1991103D1*
X991217Y1983858D1*
X997253Y1972907D1*
X997252Y1969285D1*
X991215Y1958336D1*
X979141Y1951093D1*
X954854Y1947389D1*
X924391Y1947392D1*
X894068Y1951101D1*
X875819Y1958346D1*
X869783Y1969297D1*
X869784Y1976540D1*
X875821Y1987490D1*
X888035Y1991111D1*
X997245Y1887003D2*
X997248Y1923390D1*
X942639Y1927017D1*
X948675Y1923395D1*
X954851Y1912444D1*
X954850Y1901578D1*
X948672Y1890629D1*
X936599Y1883302D1*
X918348Y1879682D1*
X906275Y1879683D1*
X888026Y1883306D1*
X875813Y1890635D1*
X869777Y1901586D1*
X869778Y1912452D1*
X875816Y1923401D1*
X881993Y1927023D1*
X894066Y1930728D1*
X869769Y1804647D2*
X997381Y1833864D1*
X869774Y1863019D1*
X912309Y1852066D2*
X912306Y1815594D1*
X997372Y1736926D2*
X869762Y1736937D1*
X997377Y1787969D1*
X869767Y1787981D1*
X5013140Y4151308D2*
Y4278917D1*
X4962096Y4151308D2*
Y4278917D1*
X5013140Y4212094D2*
X4962096D1*
X4945429Y4151308D2*
Y4278917D1*
X4919907D1*
X4908957Y4272741D1*
X4901629Y4260667D1*
X4898007Y4248454D1*
X4894385Y4230344D1*
Y4199881D1*
X4898007Y4181631D1*
X4901629Y4169558D1*
X4908957Y4157344D1*
X4919907Y4151308D1*
X4945429D1*
X4877719Y4212094D2*
X4844953D1*
X4834003Y4205917D1*
X4830297Y4199881D1*
X4826675Y4187808D1*
Y4175594D1*
X4830297Y4163521D1*
X4834003Y4157344D1*
X4844953Y4151308D1*
X4877719D1*
Y4278917D1*
X4852197Y4212094D2*
X4826675Y4278917D1*
X4810008Y4215183D2*
X4767893D1*
X4751226Y4175735D2*
X4743898Y4169558D1*
X4732948Y4151448D1*
Y4278917D1*
X4716281Y4193844D2*
X4676187Y4278917D1*
Y4193844D2*
X4716281Y4278917D1*
X4652193Y4151448D2*
X4612183D1*
X4633999Y4200021D1*
X4623049D1*
X4615805Y4206058D1*
X4612183Y4212094D1*
X4608477Y4230344D1*
Y4242417D1*
X4612183Y4260667D1*
X4619427Y4272881D1*
X4630377Y4278917D1*
X4641327D1*
X4652193Y4272881D1*
X4655815Y4266704D1*
X4659521Y4254631D1*
X-2733883Y2869456D2*
Y2997065D1*
X-2763027Y2869456D1*
X-2792171Y2997065D1*
Y2869456D1*
X-2662551Y2966742D2*
X-2666173Y2978815D1*
X-2673501Y2991029D1*
X-2680744Y2997065D1*
X-2695316D1*
X-2702644Y2991029D1*
X-2709888Y2978815D1*
X-2713594Y2966742D1*
X-2717216Y2948492D1*
Y2918029D1*
X-2713594Y2899919D1*
X-2709888Y2887706D1*
X-2702644Y2875633D1*
X-2695316Y2869456D1*
X-2680744D1*
X-2673501Y2875633D1*
X-2666173Y2887706D1*
X-2662551Y2899919D1*
X-2631312Y2869456D2*
X-2594840Y2996925D1*
X-2645884D1*
X-2541701Y2869456D2*
Y2996925D1*
X-2578173Y2911992D1*
X-2523508D1*
X-2506841Y2997065D2*
Y2869456D1*
X-2455797Y2997065D2*
Y2869456D1*
X-2506841Y2936279D2*
X-2455797D1*
X-2384465Y2966742D2*
X-2388087Y2978815D1*
X-2395415Y2991029D1*
X-2402659Y2997065D1*
X-2417230D1*
X-2424559Y2991029D1*
X-2431802Y2978815D1*
X-2435509Y2966742D1*
X-2439130Y2948492D1*
Y2918029D1*
X-2435509Y2899919D1*
X-2431802Y2887706D1*
X-2424559Y2875633D1*
X-2417230Y2869456D1*
X-2402659D1*
X-2395415Y2875633D1*
X-2388087Y2887706D1*
X-2384465Y2899919D1*
X-2324082Y2996925D2*
X-2360470D1*
X-2364092Y2942315D1*
X-2360470Y2948352D1*
X-2349520Y2954529D1*
X-2338654D1*
X-2327704Y2948352D1*
X-2320376Y2936279D1*
X-2316754Y2918029D1*
Y2905956D1*
X-2320376Y2887706D1*
X-2327704Y2875492D1*
X-2338654Y2869456D1*
X-2349520D1*
X-2360470Y2875492D1*
X-2364092Y2881669D1*
X-2367798Y2893742D1*
X-2252666Y2954529D2*
X-2256372Y2936279D1*
X-2263616Y2924065D1*
X-2274566Y2918029D1*
X-2278187D1*
X-2289137Y2924065D1*
X-2296381Y2936279D1*
X-2300087Y2954529D1*
Y2960565D1*
X-2296381Y2978815D1*
X-2289137Y2990889D1*
X-2278187Y2996925D1*
X-2274566D1*
X-2263616Y2990889D1*
X-2256372Y2978815D1*
X-2252666Y2954529D1*
Y2924065D1*
X-2256372Y2893742D1*
X-2263616Y2875492D1*
X-2274566Y2869456D1*
X-2281809D1*
X-2292759Y2875492D1*
X-2296381Y2887706D1*
X-2192283Y2996925D2*
X-2228671D1*
X-2232293Y2942315D1*
X-2228671Y2948352D1*
X-2217721Y2954529D1*
X-2206855D1*
X-2195905Y2948352D1*
X-2188577Y2936279D1*
X-2184955Y2918029D1*
Y2905956D1*
X-2188577Y2887706D1*
X-2195905Y2875492D1*
X-2206855Y2869456D1*
X-2217721D1*
X-2228671Y2875492D1*
X-2232293Y2881669D1*
X-2235999Y2893742D1*
X-2109916Y2869456D2*
X-2139145Y2997065D1*
X-2168288Y2869456D1*
X-2157338Y2911992D2*
X-2120866D1*
X-2042206Y2997065D2*
Y2869456D1*
X-2093250Y2997065D1*
Y2869456D1*
X6062704Y4151308D2*
Y4278917D1*
X6011660Y4151308D2*
Y4278917D1*
X6062704Y4212094D2*
X6011660D1*
X5994993Y4151308D2*
Y4278917D1*
X5969472D1*
X5958522Y4272741D1*
X5951193Y4260667D1*
X5947572Y4248454D1*
X5943950Y4230344D1*
Y4199881D1*
X5947572Y4181631D1*
X5951193Y4169558D1*
X5958522Y4157344D1*
X5969472Y4151308D1*
X5994993D1*
X5927283Y4212094D2*
X5894517D1*
X5883567Y4205917D1*
X5879861Y4199881D1*
X5876239Y4187808D1*
Y4175594D1*
X5879861Y4163521D1*
X5883567Y4157344D1*
X5894517Y4151308D1*
X5927283D1*
Y4278917D1*
X5901761Y4212094D2*
X5876239Y4278917D1*
X5859572Y4215183D2*
X5817457D1*
X5800790Y4175735D2*
X5793462Y4169558D1*
X5782512Y4151448D1*
Y4278917D1*
X5765846Y4193844D2*
X5725752Y4278917D1*
Y4193844D2*
X5765846Y4278917D1*
X5672613D2*
Y4151448D1*
X5709085Y4236381D1*
X5654419D1*
X2409643Y4151308D2*
Y4278917D1*
X2358599Y4151308D2*
Y4278917D1*
X2409643Y4212094D2*
X2358599D1*
X2341933Y4151308D2*
Y4278917D1*
X2316411D1*
X2305461Y4272741D1*
X2298133Y4260667D1*
X2294511Y4248454D1*
X2290889Y4230344D1*
Y4199881D1*
X2294511Y4181631D1*
X2298133Y4169558D1*
X2305461Y4157344D1*
X2316411Y4151308D1*
X2341933D1*
X2274222Y4212094D2*
X2241456D1*
X2230506Y4205917D1*
X2226800Y4199881D1*
X2223178Y4187808D1*
Y4175594D1*
X2226800Y4163521D1*
X2230506Y4157344D1*
X2241456Y4151308D1*
X2274222D1*
Y4278917D1*
X2248700Y4212094D2*
X2223178Y4278917D1*
X2206511Y4215183D2*
X2164396D1*
X2147729Y4175735D2*
X2140401Y4169558D1*
X2129451Y4151448D1*
Y4278917D1*
X2112785Y4193844D2*
X2072691Y4278917D1*
Y4193844D2*
X2112785Y4278917D1*
X2048696Y4151448D2*
X2008686D1*
X2030502Y4200021D1*
X2019552D1*
X2012308Y4206058D1*
X2008686Y4212094D1*
X2004980Y4230344D1*
Y4242417D1*
X2008686Y4260667D1*
X2015930Y4272881D1*
X2026880Y4278917D1*
X2037830D1*
X2048696Y4272881D1*
X2052318Y4266704D1*
X2056024Y4254631D1*
X28393Y4151308D2*
Y4278917D1*
X-22651Y4151308D2*
Y4278917D1*
X28393Y4212094D2*
X-22651D1*
X-39317Y4151308D2*
Y4278917D1*
X-64839D1*
X-75789Y4272741D1*
X-83117Y4260667D1*
X-86739Y4248454D1*
X-90361Y4230344D1*
Y4199881D1*
X-86739Y4181631D1*
X-83117Y4169558D1*
X-75789Y4157344D1*
X-64839Y4151308D1*
X-39317D1*
X-107028Y4212094D2*
X-139794D1*
X-150744Y4205917D1*
X-154450Y4199881D1*
X-158072Y4187808D1*
Y4175594D1*
X-154450Y4163521D1*
X-150744Y4157344D1*
X-139794Y4151308D1*
X-107028D1*
Y4278917D1*
X-132550Y4212094D2*
X-158072Y4278917D1*
X-174739Y4215183D2*
X-216854D1*
X-233521Y4175735D2*
X-240849Y4169558D1*
X-251799Y4151448D1*
Y4278917D1*
X-268465Y4193844D2*
X-308559Y4278917D1*
Y4193844D2*
X-268465Y4278917D1*
X-332554Y4151448D2*
X-372564D1*
X-350748Y4200021D1*
X-361698D1*
X-368942Y4206058D1*
X-372564Y4212094D1*
X-376270Y4230344D1*
Y4242417D1*
X-372564Y4260667D1*
X-365320Y4272881D1*
X-354370Y4278917D1*
X-343420D1*
X-332554Y4272881D1*
X-328932Y4266704D1*
X-325226Y4254631D1*
X7172143Y4151308D2*
Y4278917D1*
X7121099Y4151308D2*
Y4278917D1*
X7172143Y4212094D2*
X7121099D1*
X7104433Y4151308D2*
Y4278917D1*
X7078911D1*
X7067961Y4272741D1*
X7060633Y4260667D1*
X7057011Y4248454D1*
X7053389Y4230344D1*
Y4199881D1*
X7057011Y4181631D1*
X7060633Y4169558D1*
X7067961Y4157344D1*
X7078911Y4151308D1*
X7104433D1*
X7036722Y4212094D2*
X7003956D1*
X6993006Y4205917D1*
X6989300Y4199881D1*
X6985678Y4187808D1*
Y4175594D1*
X6989300Y4163521D1*
X6993006Y4157344D1*
X7003956Y4151308D1*
X7036722D1*
Y4278917D1*
X7011200Y4212094D2*
X6985678Y4278917D1*
X6969011Y4215183D2*
X6926896D1*
X6910229Y4175735D2*
X6902901Y4169558D1*
X6891951Y4151448D1*
Y4278917D1*
X6875285Y4193844D2*
X6835191Y4278917D1*
Y4193844D2*
X6875285Y4278917D1*
X6811196Y4151448D2*
X6771186D1*
X6793002Y4200021D1*
X6782052D1*
X6774808Y4206058D1*
X6771186Y4212094D1*
X6767480Y4230344D1*
Y4242417D1*
X6771186Y4260667D1*
X6778430Y4272881D1*
X6789380Y4278917D1*
X6800330D1*
X6811196Y4272881D1*
X6814818Y4266704D1*
X6818524Y4254631D1*
X-4202565Y2631266D2*
X-4330174D1*
X-4202565Y2580223D2*
X-4330174D1*
X-4263351Y2631266D2*
Y2580223D1*
X-4202565Y2563556D2*
X-4330174D1*
Y2538034D1*
X-4323997Y2527084D1*
X-4311924Y2519756D1*
X-4299711Y2516134D1*
X-4281601Y2512512D1*
X-4251138D1*
X-4232888Y2516134D1*
X-4220815Y2519756D1*
X-4208601Y2527084D1*
X-4202565Y2538034D1*
Y2563556D1*
X-4263351Y2495845D2*
Y2463080D1*
X-4257174Y2452130D1*
X-4251138Y2448423D1*
X-4239065Y2444801D1*
X-4226851D1*
X-4214778Y2448423D1*
X-4208601Y2452130D1*
X-4202565Y2463080D1*
Y2495845D1*
X-4330174D1*
X-4263351Y2470323D2*
X-4330174Y2444801D1*
X-4266440Y2428135D2*
Y2386019D1*
X-4226991Y2369353D2*
X-4220815Y2362025D1*
X-4202705Y2351075D1*
X-4330174D1*
X-4245101Y2334408D2*
X-4330174Y2294314D1*
X-4245101D2*
X-4330174Y2334408D1*
X-4202705Y2270319D2*
Y2230310D1*
X-4251278Y2252126D1*
Y2241176D1*
X-4257315Y2233932D1*
X-4263351Y2230310D1*
X-4281601Y2226604D1*
X-4293674D1*
X-4311924Y2230310D1*
X-4324138Y2237554D1*
X-4330174Y2248504D1*
Y2259454D1*
X-4324138Y2270319D1*
X-4317961Y2273941D1*
X-4305888Y2277647D1*
X-3938546Y4151308D2*
Y4278917D1*
X-3989590Y4151308D2*
Y4278917D1*
X-3938546Y4212094D2*
X-3989590D1*
X-4006257Y4151308D2*
Y4278917D1*
X-4031778D1*
X-4042728Y4272741D1*
X-4050057Y4260667D1*
X-4053678Y4248454D1*
X-4057300Y4230344D1*
Y4199881D1*
X-4053678Y4181631D1*
X-4050057Y4169558D1*
X-4042728Y4157344D1*
X-4031778Y4151308D1*
X-4006257D1*
X-4073967Y4212094D2*
X-4106733D1*
X-4117683Y4205917D1*
X-4121389Y4199881D1*
X-4125011Y4187808D1*
Y4175594D1*
X-4121389Y4163521D1*
X-4117683Y4157344D1*
X-4106733Y4151308D1*
X-4073967D1*
Y4278917D1*
X-4099489Y4212094D2*
X-4125011Y4278917D1*
X-4141678Y4215183D2*
X-4183793D1*
X-4200460Y4175735D2*
X-4207788Y4169558D1*
X-4218738Y4151448D1*
Y4278917D1*
X-4235404Y4193844D2*
X-4275498Y4278917D1*
Y4193844D2*
X-4235404Y4278917D1*
X-4328637D2*
Y4151448D1*
X-4292165Y4236381D1*
X-4346831D1*
X1268457Y4151308D2*
Y4278917D1*
X1217413Y4151308D2*
Y4278917D1*
X1268457Y4212094D2*
X1217413D1*
X1200747Y4151308D2*
Y4278917D1*
X1175225D1*
X1164275Y4272741D1*
X1156947Y4260667D1*
X1153325Y4248454D1*
X1149703Y4230344D1*
Y4199881D1*
X1153325Y4181631D1*
X1156947Y4169558D1*
X1164275Y4157344D1*
X1175225Y4151308D1*
X1200747D1*
X1133036Y4212094D2*
X1100271D1*
X1089321Y4205917D1*
X1085614Y4199881D1*
X1081992Y4187808D1*
Y4175594D1*
X1085614Y4163521D1*
X1089321Y4157344D1*
X1100271Y4151308D1*
X1133036D1*
Y4278917D1*
X1107514Y4212094D2*
X1081992Y4278917D1*
X1065326Y4215183D2*
X1023210D1*
X1006544Y4175735D2*
X999216Y4169558D1*
X988266Y4151448D1*
Y4278917D1*
X971599Y4193844D2*
X931505Y4278917D1*
Y4193844D2*
X971599Y4278917D1*
X878367D2*
Y4151448D1*
X914838Y4236381D1*
X860173D1*
X-2797360Y4151308D2*
Y4278917D1*
X-2848404Y4151308D2*
Y4278917D1*
X-2797360Y4212094D2*
X-2848404D1*
X-2865071Y4151308D2*
Y4278917D1*
X-2890593D1*
X-2901543Y4272741D1*
X-2908871Y4260667D1*
X-2912493Y4248454D1*
X-2916115Y4230344D1*
Y4199881D1*
X-2912493Y4181631D1*
X-2908871Y4169558D1*
X-2901543Y4157344D1*
X-2890593Y4151308D1*
X-2865071D1*
X-2932781Y4212094D2*
X-2965547D1*
X-2976497Y4205917D1*
X-2980203Y4199881D1*
X-2983825Y4187808D1*
Y4175594D1*
X-2980203Y4163521D1*
X-2976497Y4157344D1*
X-2965547Y4151308D1*
X-2932781D1*
Y4278917D1*
X-2958303Y4212094D2*
X-2983825Y4278917D1*
X-3000492Y4215183D2*
X-3042607D1*
X-3059274Y4175735D2*
X-3066602Y4169558D1*
X-3077552Y4151448D1*
Y4278917D1*
X-3094219Y4193844D2*
X-3134313Y4278917D1*
Y4193844D2*
X-3094219Y4278917D1*
X-3158307Y4151448D2*
X-3198317D1*
X-3176501Y4200021D1*
X-3187451D1*
X-3194695Y4206058D1*
X-3198317Y4212094D1*
X-3202023Y4230344D1*
Y4242417D1*
X-3198317Y4260667D1*
X-3191073Y4272881D1*
X-3180123Y4278917D1*
X-3169173D1*
X-3158307Y4272881D1*
X-3154685Y4266704D1*
X-3150979Y4254631D1*
X-1144543Y4151308D2*
Y4278917D1*
X-1195587Y4151308D2*
Y4278917D1*
X-1144543Y4212094D2*
X-1195587D1*
X-1212253Y4151308D2*
Y4278917D1*
X-1237775D1*
X-1248725Y4272741D1*
X-1256053Y4260667D1*
X-1259675Y4248454D1*
X-1263297Y4230344D1*
Y4199881D1*
X-1259675Y4181631D1*
X-1256053Y4169558D1*
X-1248725Y4157344D1*
X-1237775Y4151308D1*
X-1212253D1*
X-1279964Y4212094D2*
X-1312729D1*
X-1323679Y4205917D1*
X-1327386Y4199881D1*
X-1331008Y4187808D1*
Y4175594D1*
X-1327386Y4163521D1*
X-1323679Y4157344D1*
X-1312729Y4151308D1*
X-1279964D1*
Y4278917D1*
X-1305486Y4212094D2*
X-1331008Y4278917D1*
X-1347674Y4215183D2*
X-1389790D1*
X-1406456Y4175735D2*
X-1413784Y4169558D1*
X-1424734Y4151448D1*
Y4278917D1*
X-1441401Y4193844D2*
X-1481495Y4278917D1*
Y4193844D2*
X-1441401Y4278917D1*
X-1534633D2*
Y4151448D1*
X-1498162Y4236381D1*
X-1552827D1*
X-4202565Y1490077D2*
X-4330174D1*
X-4202565Y1439033D2*
X-4330174D1*
X-4263351Y1490077D2*
Y1439033D1*
X-4202565Y1422367D2*
X-4330174D1*
Y1396845D1*
X-4323997Y1385895D1*
X-4311924Y1378567D1*
X-4299711Y1374945D1*
X-4281601Y1371323D1*
X-4251138D1*
X-4232888Y1374945D1*
X-4220815Y1378567D1*
X-4208601Y1385895D1*
X-4202565Y1396845D1*
Y1422367D1*
X-4263351Y1354656D2*
Y1321891D1*
X-4257174Y1310941D1*
X-4251138Y1307234D1*
X-4239065Y1303612D1*
X-4226851D1*
X-4214778Y1307234D1*
X-4208601Y1310941D1*
X-4202565Y1321891D1*
Y1354656D1*
X-4330174D1*
X-4263351Y1329134D2*
X-4330174Y1303612D1*
X-4266440Y1286946D2*
Y1244830D1*
X-4226991Y1228164D2*
X-4220815Y1220836D1*
X-4202705Y1209886D1*
X-4330174D1*
X-4245101Y1193219D2*
X-4330174Y1153125D1*
X-4245101D2*
X-4330174Y1193219D1*
Y1099987D2*
X-4202705D1*
X-4287638Y1136458D1*
Y1081793D1*
X3871954Y4151308D2*
Y4278917D1*
X3820910Y4151308D2*
Y4278917D1*
X3871954Y4212094D2*
X3820910D1*
X3804243Y4151308D2*
Y4278917D1*
X3778722D1*
X3767772Y4272741D1*
X3760443Y4260667D1*
X3756822Y4248454D1*
X3753200Y4230344D1*
Y4199881D1*
X3756822Y4181631D1*
X3760443Y4169558D1*
X3767772Y4157344D1*
X3778722Y4151308D1*
X3804243D1*
X3736533Y4212094D2*
X3703767D1*
X3692817Y4205917D1*
X3689111Y4199881D1*
X3685489Y4187808D1*
Y4175594D1*
X3689111Y4163521D1*
X3692817Y4157344D1*
X3703767Y4151308D1*
X3736533D1*
Y4278917D1*
X3711011Y4212094D2*
X3685489Y4278917D1*
X3668822Y4215183D2*
X3626707D1*
X3610040Y4175735D2*
X3602712Y4169558D1*
X3591762Y4151448D1*
Y4278917D1*
X3575096Y4193844D2*
X3535002Y4278917D1*
Y4193844D2*
X3575096Y4278917D1*
X3481863D2*
Y4151448D1*
X3518335Y4236381D1*
X3463669D1*
X3179734Y3088815D2*
Y2961206D1*
X3230777Y3088815D2*
Y2961206D1*
X3179734Y3028029D2*
X3230777D1*
X3247444Y3088815D2*
Y2961206D1*
X3272966D1*
X3283916Y2967383D1*
X3291244Y2979456D1*
X3294866Y2991669D1*
X3298488Y3009779D1*
Y3040242D1*
X3294866Y3058492D1*
X3291244Y3070565D1*
X3283916Y3082779D1*
X3272966Y3088815D1*
X3247444D1*
X3315155Y3028029D2*
X3347920D1*
X3358870Y3034206D1*
X3362577Y3040242D1*
X3366199Y3052315D1*
Y3064529D1*
X3362577Y3076602D1*
X3358870Y3082779D1*
X3347920Y3088815D1*
X3315155D1*
Y2961206D1*
X3340677Y3028029D2*
X3366199Y2961206D1*
X3382865Y3024940D2*
X3424981D1*
X3441647Y3064389D2*
X3448975Y3070565D1*
X3459925Y3088675D1*
Y2961206D1*
X3476592Y3046279D2*
X3516686Y2961206D1*
Y3046279D2*
X3476592Y2961206D1*
X3537059Y3058352D2*
Y3064389D1*
X3540681Y3076602D1*
X3544303Y3082639D1*
X3551631Y3088675D1*
X3566203D1*
X3573446Y3082639D1*
X3577068Y3076602D1*
X3580774Y3064389D1*
Y3052315D1*
X3577068Y3040102D1*
X3569824Y3021992D1*
X3533353Y2961206D1*
X3584396D1*
X4346390Y341308D2*
Y468917D1*
X4295346Y341308D2*
Y468917D1*
X4346390Y402094D2*
X4295346D1*
X4278679Y341308D2*
Y468917D1*
X4253157D1*
X4242207Y462741D1*
X4234879Y450667D1*
X4231257Y438454D1*
X4227635Y420344D1*
Y389881D1*
X4231257Y371631D1*
X4234879Y359558D1*
X4242207Y347344D1*
X4253157Y341308D1*
X4278679D1*
X4210969Y402094D2*
X4178203D1*
X4167253Y395917D1*
X4163547Y389881D1*
X4159925Y377808D1*
Y365594D1*
X4163547Y353521D1*
X4167253Y347344D1*
X4178203Y341308D1*
X4210969D1*
Y468917D1*
X4185447Y402094D2*
X4159925Y468917D1*
X4143258Y405183D2*
X4101143D1*
X4084476Y365735D2*
X4077148Y359558D1*
X4066198Y341448D1*
Y468917D1*
X4049531Y383844D2*
X4009437Y468917D1*
Y383844D2*
X4049531Y468917D1*
X3989065Y371771D2*
Y365735D1*
X3985443Y353521D1*
X3981821Y347485D1*
X3974493Y341448D1*
X3959921D1*
X3952677Y347485D1*
X3949055Y353521D1*
X3945349Y365735D1*
Y377808D1*
X3949055Y390021D1*
X3956299Y408131D1*
X3992771Y468917D1*
X3941727D1*
X4927017Y2675456D2*
X4897788Y2803065D1*
X4868645Y2675456D1*
X4879595Y2717992D2*
X4916067D1*
X4943683Y2742279D2*
X4976449D1*
X4987399Y2748456D1*
X4991105Y2754492D1*
X4994727Y2766565D1*
Y2778779D1*
X4991105Y2790852D1*
X4987399Y2797029D1*
X4976449Y2803065D1*
X4943683D1*
Y2675456D1*
X4969205Y2742279D2*
X4994727Y2675456D1*
X5011394Y2803065D2*
Y2675456D1*
X5036916D1*
X5047866Y2681633D1*
X5055194Y2693706D1*
X5058816Y2705919D1*
X5062438Y2724029D1*
Y2754492D1*
X5058816Y2772742D1*
X5055194Y2784815D1*
X5047866Y2797029D1*
X5036916Y2803065D1*
X5011394D1*
X5079104D2*
Y2711956D1*
X5082726Y2693706D1*
X5090054Y2681633D1*
X5101004Y2675456D1*
X5108248D1*
X5119198Y2681633D1*
X5126526Y2693706D1*
X5130148Y2711956D1*
Y2803065D1*
X5146815D2*
Y2675456D1*
X5214525Y2803065D2*
Y2675456D1*
X5163481Y2803065D1*
Y2675456D1*
X5253092Y2803065D2*
X5245764Y2797029D1*
X5238520Y2784815D1*
X5234814Y2772742D1*
X5231192Y2754492D1*
Y2724029D1*
X5234814Y2705919D1*
X5238520Y2693706D1*
X5245764Y2681633D1*
X5253092Y2675456D1*
X5267664D1*
X5274908Y2681633D1*
X5282236Y2693706D1*
X5285858Y2705919D1*
X5289480Y2724029D1*
Y2754492D1*
X5285858Y2772742D1*
X5282236Y2784815D1*
X5274908Y2797029D1*
X5267664Y2803065D1*
X5253092D1*
X5424395D2*
Y2675456D1*
X5373351Y2803065D1*
Y2675456D1*
X5499434D2*
X5470206Y2803065D1*
X5441062Y2675456D1*
X5452012Y2717992D2*
X5488484D1*
X5567144Y2803065D2*
Y2675456D1*
X5516101Y2803065D1*
Y2675456D1*
X5605711Y2803065D2*
X5598383Y2797029D1*
X5591139Y2784815D1*
X5587433Y2772742D1*
X5583811Y2754492D1*
Y2724029D1*
X5587433Y2705919D1*
X5591139Y2693706D1*
X5598383Y2681633D1*
X5605711Y2675456D1*
X5620283D1*
X5627527Y2681633D1*
X5634855Y2693706D1*
X5638477Y2705919D1*
X5642099Y2724029D1*
Y2754492D1*
X5638477Y2772742D1*
X5634855Y2784815D1*
X5627527Y2797029D1*
X5620283Y2803065D1*
X5605711D1*
X-6245366Y919556D2*
Y952406D1*
X-6251402Y963272D1*
X-6257579Y966978D1*
X-6269652Y970600D1*
X-6287902D1*
X-6299975Y966978D1*
X-6306152Y963272D1*
X-6312189Y952406D1*
Y919556D1*
X-6184579D1*
X-6312189Y1023739D2*
X-6215043D1*
X-6196793Y1020117D1*
X-6190756Y1016411D1*
X-6184579Y1009167D1*
Y1001839D1*
X-6190756Y994595D1*
X-6196793Y990973D1*
X-6215043Y987267D1*
X-6227116D1*
X-6248314Y1040406D2*
Y1082521D1*
X-6281725Y1102894D2*
X-6287762D1*
X-6299975Y1106516D1*
X-6306012Y1110138D1*
X-6312048Y1117466D1*
Y1132038D1*
X-6306012Y1139281D1*
X-6299975Y1142903D1*
X-6287762Y1146610D1*
X-6275689D1*
X-6263475Y1142903D1*
X-6245366Y1135660D1*
X-6184579Y1099188D1*
Y1150231D1*
X-6312048Y1188798D2*
X-6306012Y1177848D1*
X-6287762Y1170520D1*
X-6257439Y1166898D1*
X-6239189D1*
X-6208866Y1170520D1*
X-6190616Y1177848D1*
X-6184579Y1188798D1*
Y1196042D1*
X-6190616Y1206992D1*
X-6208866Y1214236D1*
X-6239189Y1217942D1*
X-6257439D1*
X-6287762Y1214236D1*
X-6306012Y1206992D1*
X-6312048Y1196042D1*
Y1188798D1*
X-6287762Y1214236D2*
X-6208866Y1170520D1*
X-6281725Y1238315D2*
X-6287762D1*
X-6299975Y1241937D1*
X-6306012Y1245559D1*
X-6312048Y1252887D1*
Y1267459D1*
X-6306012Y1274703D1*
X-6299975Y1278324D1*
X-6287762Y1282031D1*
X-6275689D1*
X-6263475Y1278324D1*
X-6245366Y1271081D1*
X-6184579Y1234609D1*
Y1285653D1*
X-6312189Y1302319D2*
X-6184579D1*
Y1335169D1*
X-6190756Y1346119D1*
X-6196793Y1349741D1*
X-6208866Y1353363D1*
X-6227116D1*
X-6239329Y1349741D1*
X-6245366Y1346119D1*
X-6251402Y1335169D1*
X-6257579Y1346119D1*
X-6263616Y1349741D1*
X-6275689Y1353363D1*
X-6287902D1*
X-6299975Y1349741D1*
X-6306152Y1346119D1*
X-6312189Y1335169D1*
Y1302319D1*
X-6251402D2*
Y1335169D1*
X-6312189Y1370030D2*
X-6184579D1*
X-6312189Y1421074D2*
X-6184579D1*
X-6251402Y1370030D2*
Y1421074D1*
X-4873678Y2891519D2*
X-5001287D1*
Y2865997D1*
X-4995111Y2855047D1*
X-4983037Y2847719D1*
X-4970824Y2844097D1*
X-4952714Y2840475D1*
X-4922251D1*
X-4904001Y2844097D1*
X-4891928Y2847719D1*
X-4879714Y2855047D1*
X-4873678Y2865997D1*
Y2891519D1*
Y2823808D2*
X-5001287D1*
Y2790958D1*
X-4995111Y2780008D1*
X-4989074Y2776387D1*
X-4977001Y2772765D1*
X-4958751D1*
X-4946537Y2776387D1*
X-4940501Y2780008D1*
X-4934464Y2790958D1*
X-4928287Y2780008D1*
X-4922251Y2776387D1*
X-4910178Y2772765D1*
X-4897964D1*
X-4885891Y2776387D1*
X-4879714Y2780008D1*
X-4873678Y2790958D1*
Y2823808D1*
X-4934464D2*
Y2790958D1*
X-4873678Y2756098D2*
X-5001287D1*
Y2712382D1*
X-4904141Y2692009D2*
X-4898105D1*
X-4885891Y2688387D1*
X-4879855Y2684766D1*
X-4873818Y2677437D1*
Y2662866D1*
X-4879855Y2655622D1*
X-4885891Y2652000D1*
X-4898105Y2648294D1*
X-4910178D1*
X-4922391Y2652000D1*
X-4940501Y2659244D1*
X-5001287Y2695716D1*
Y2644672D1*
X-4873818Y2606105D2*
X-4879855Y2617055D1*
X-4898105Y2624383D1*
X-4928428Y2628005D1*
X-4946678D1*
X-4977001Y2624383D1*
X-4995251Y2617055D1*
X-5001287Y2606105D1*
Y2598861D1*
X-4995251Y2587911D1*
X-4977001Y2580667D1*
X-4946678Y2576961D1*
X-4928428D1*
X-4898105Y2580667D1*
X-4879855Y2587911D1*
X-4873818Y2598861D1*
Y2606105D1*
X-4898105Y2580667D2*
X-4977001Y2624383D1*
X-4891928Y2516579D2*
X-4879855Y2520201D1*
X-4873818Y2531151D1*
Y2538394D1*
X-4879855Y2549344D1*
X-4898105Y2556673D1*
X-4928428Y2560294D1*
X-4958751D1*
X-4983037Y2556673D1*
X-4995251Y2549344D1*
X-5001287Y2538394D1*
Y2534773D1*
X-4995251Y2523907D1*
X-4983037Y2516579D1*
X-4964787Y2512957D1*
X-4958751D1*
X-4940501Y2516579D1*
X-4928428Y2523907D1*
X-4922391Y2534773D1*
Y2538394D1*
X-4928428Y2549344D1*
X-4940501Y2556673D1*
X-4958751Y2560294D1*
X-4904001Y2441624D2*
X-4891928Y2445246D1*
X-4879714Y2452574D1*
X-4873678Y2459818D1*
Y2474390D1*
X-4879714Y2481718D1*
X-4891928Y2488962D1*
X-4904001Y2492668D1*
X-4922251Y2496290D1*
X-4952714D1*
X-4970824Y2492668D1*
X-4983037Y2488962D1*
X-4995111Y2481718D1*
X-5001287Y2474390D1*
Y2459818D1*
X-4995111Y2452574D1*
X-4983037Y2445246D1*
X-4970824Y2441624D1*
X-4952714D1*
Y2459818D1*
X-6335510Y1133634D2*
X-6331888Y1121561D1*
X-6324560Y1109348D1*
X-6317317Y1103311D1*
X-6302745D1*
X-6295417Y1109348D1*
X-6288173Y1121561D1*
X-6284467Y1133634D1*
X-6280845Y1151884D1*
Y1182348D1*
X-6284467Y1200457D1*
X-6288173Y1212671D1*
X-6295417Y1224744D1*
X-6302745Y1230921D1*
X-6317317D1*
X-6324560Y1224744D1*
X-6331888Y1212671D1*
X-6335510Y1200457D1*
X-6410549Y1230921D2*
X-6381321Y1103311D1*
X-6352177Y1230921D1*
X-6363127Y1188384D2*
X-6399599D1*
X-6427216Y1170134D2*
X-6460066D1*
X-6470931Y1164098D1*
X-6474638Y1157921D1*
X-6478259Y1145848D1*
Y1127598D1*
X-6474638Y1115525D1*
X-6470931Y1109348D1*
X-6460066Y1103311D1*
X-6427216D1*
Y1230921D1*
X-6498632Y1133775D2*
Y1127738D1*
X-6502254Y1115525D1*
X-6505876Y1109488D1*
X-6513204Y1103452D1*
X-6527776D1*
X-6535020Y1109488D1*
X-6538642Y1115525D1*
X-6542348Y1127738D1*
Y1139811D1*
X-6538642Y1152025D1*
X-6531398Y1170134D1*
X-6494926Y1230921D1*
X-6545970D1*
X-6584537Y1103452D2*
X-6573587Y1109488D1*
X-6566259Y1127738D1*
X-6562637Y1158061D1*
Y1176311D1*
X-6566259Y1206634D1*
X-6573587Y1224884D1*
X-6584537Y1230921D1*
X-6591781D1*
X-6602731Y1224884D1*
X-6609974Y1206634D1*
X-6613681Y1176311D1*
Y1158061D1*
X-6609974Y1127738D1*
X-6602731Y1109488D1*
X-6591781Y1103452D1*
X-6584537D1*
X-6609974Y1127738D2*
X-6566259Y1206634D1*
X-6652247Y1103452D2*
X-6641297Y1109488D1*
X-6633969Y1127738D1*
X-6630347Y1158061D1*
Y1176311D1*
X-6633969Y1206634D1*
X-6641297Y1224884D1*
X-6652247Y1230921D1*
X-6659491D1*
X-6670441Y1224884D1*
X-6677685Y1206634D1*
X-6681391Y1176311D1*
Y1158061D1*
X-6677685Y1127738D1*
X-6670441Y1109488D1*
X-6659491Y1103452D1*
X-6652247D1*
X-6677685Y1127738D2*
X-6633969Y1206634D1*
X-6698058Y1164098D2*
X-6730823D1*
X-6741773Y1157921D1*
X-6745480Y1151884D1*
X-6749102Y1139811D1*
Y1127598D1*
X-6745480Y1115525D1*
X-6741773Y1109348D1*
X-6730823Y1103311D1*
X-6698058D1*
Y1230921D1*
X-6723580Y1164098D2*
X-6749102Y1230921D1*
X-6765768Y1170134D2*
X-6798618D1*
X-6809484Y1164098D1*
X-6813190Y1157921D1*
X-6816812Y1145848D1*
Y1127598D1*
X-6813190Y1115525D1*
X-6809484Y1109348D1*
X-6798618Y1103311D1*
X-6765768D1*
Y1230921D1*
X-6069535Y4141936D2*
X-6057462Y4145559D1*
X-6045249Y4152888D1*
X-6039214Y4160133D1*
X-6039215Y4174705D1*
X-6045253Y4182032D1*
X-6057467Y4189275D1*
X-6069540Y4192979D1*
X-6087791Y4196599D1*
X-6118254Y4196596D1*
X-6136363Y4192972D1*
X-6148576Y4189264D1*
X-6160649Y4182019D1*
X-6166825Y4174691D1*
X-6166823Y4160119D1*
X-6160645Y4152875D1*
X-6148572Y4145549D1*
X-6136358Y4141928D1*
X-6166813Y4066886D2*
X-6039206Y4096128D1*
X-6166819Y4125258D1*
X-6124282Y4114313D2*
X-6124278Y4077841D1*
X-6106024Y4050226D2*
X-6106021Y4017376D1*
X-6099983Y4006511D1*
X-6093806Y4002806D1*
X-6081732Y3999185D1*
X-6063482Y3999187D1*
X-6051410Y4002810D1*
X-6045233Y4006517D1*
X-6039198Y4017384D1*
X-6039201Y4050234D1*
X-6166811Y4050219D1*
X-6069657Y3978814D2*
X-6063620D1*
X-6051406Y3975194D1*
X-6045370Y3971572D1*
X-6039332Y3964245D1*
X-6039331Y3949673D1*
X-6045366Y3942429D1*
X-6051402Y3938806D1*
X-6063616Y3935099D1*
X-6075689Y3935097D1*
X-6087902Y3938802D1*
X-6106013Y3946044D1*
X-6166803Y3982509D1*
X-6166798Y3931465D1*
X-6039324Y3892913D2*
X-6045362Y3903862D1*
X-6063613Y3911188D1*
X-6093936Y3914807D1*
X-6112186Y3914805D1*
X-6142509Y3911179D1*
X-6160758Y3903849D1*
X-6166794Y3892898D1*
X-6166793Y3885655D1*
X-6160755Y3874705D1*
X-6142504Y3867463D1*
X-6112181Y3863761D1*
X-6093931Y3863763D1*
X-6063608Y3867472D1*
X-6045359Y3874718D1*
X-6039323Y3885669D1*
X-6039324Y3892913D1*
X-6063608Y3867472D2*
X-6142509Y3911179D1*
X-6039317Y3825202D2*
X-6045355Y3836151D1*
X-6063605Y3843477D1*
X-6093929Y3847096D1*
X-6112179Y3847094D1*
X-6142501Y3843469D1*
X-6160751Y3836139D1*
X-6166786Y3825188D1*
X-6166785Y3817944D1*
X-6160747Y3806995D1*
X-6142497Y3799753D1*
X-6112173Y3796050D1*
X-6093923Y3796052D1*
X-6063600Y3799762D1*
X-6045351Y3807008D1*
X-6039316Y3817958D1*
X-6039317Y3825202D1*
X-6063600Y3799762D2*
X-6142501Y3843469D1*
X-6099958Y3779385D2*
X-6099954Y3746619D1*
X-6093776Y3735670D1*
X-6087739Y3731964D1*
X-6075666Y3728344D1*
X-6063452Y3728345D1*
X-6051379Y3731968D1*
X-6045203Y3735675D1*
X-6039168Y3746626D1*
X-6039171Y3779392D1*
X-6166781Y3779377D1*
X-6099955Y3753863D2*
X-6166775Y3728334D1*
X-6105987Y3711674D2*
X-6105983Y3678824D1*
X-6099945Y3667959D1*
X-6093768Y3664253D1*
X-6081695Y3660633D1*
X-6063445Y3660635D1*
X-6051372Y3664258D1*
X-6045195Y3667965D1*
X-6039160Y3678831D1*
X-6039164Y3711681D1*
X-6166773Y3711667D1*
X-7044695Y2499082D2*
X-6917086D1*
Y2542798D1*
Y2574036D2*
X-7044555Y2610508D1*
Y2559465D1*
Y2645369D2*
X-7038519Y2634503D1*
X-7026445Y2630797D1*
X-7014232D1*
X-7002159Y2634503D1*
X-6995982Y2641747D1*
X-6989945Y2656319D1*
X-6983909Y2667269D1*
X-6971695Y2674513D1*
X-6959622Y2678135D1*
X-6941372D1*
X-6929299Y2674513D1*
X-6923122Y2670891D1*
X-6917086Y2659941D1*
Y2645369D1*
X-6923122Y2634503D1*
X-6929299Y2630797D1*
X-6941372Y2627175D1*
X-6959622D1*
X-6971695Y2630797D1*
X-6983909Y2638125D1*
X-6989945Y2648991D1*
X-6995982Y2663563D1*
X-7002159Y2670891D1*
X-7014232Y2674513D1*
X-7026445D1*
X-7038519Y2670891D1*
X-7044555Y2659941D1*
Y2645369D1*
Y2716701D2*
X-7038519Y2705751D1*
X-7020269Y2698423D1*
X-6989945Y2694801D1*
X-6971695D1*
X-6941372Y2698423D1*
X-6923122Y2705751D1*
X-6917086Y2716701D1*
Y2723945D1*
X-6923122Y2734895D1*
X-6941372Y2742139D1*
X-6971695Y2745845D1*
X-6989945D1*
X-7020269Y2742139D1*
X-7038519Y2734895D1*
X-7044555Y2723945D1*
Y2716701D1*
X-7020269Y2742139D2*
X-6941372Y2698423D1*
X-7044555Y2806228D2*
Y2769840D1*
X-6989945Y2766218D1*
X-6995982Y2769840D1*
X-7002159Y2780790D1*
Y2791656D1*
X-6995982Y2802606D1*
X-6983909Y2809934D1*
X-6965659Y2813556D1*
X-6953586D1*
X-6935336Y2809934D1*
X-6923122Y2802606D1*
X-6917086Y2791656D1*
Y2780790D1*
X-6923122Y2769840D1*
X-6929299Y2766218D1*
X-6941372Y2762512D1*
X-6917086Y2888594D2*
X-7044695Y2859366D1*
X-6917086Y2830222D1*
X-6959622Y2841172D2*
Y2877644D1*
X-7044695Y2905261D2*
X-6917086D1*
Y2938111D1*
X-6923263Y2949061D1*
X-6929299Y2952683D1*
X-6941372Y2956305D1*
X-6959622D1*
X-6971836Y2952683D1*
X-6977872Y2949061D1*
X-6983909Y2938111D1*
X-6990086Y2949061D1*
X-6996122Y2952683D1*
X-7008195Y2956305D1*
X-7020409D1*
X-7032482Y2952683D1*
X-7038659Y2949061D1*
X-7044695Y2938111D1*
Y2905261D1*
X-6983909D2*
Y2938111D1*
X-6980820Y2972971D2*
Y3015087D1*
X-7044695Y3031754D2*
X-6917086Y3060897D1*
X-7044695Y3090041D1*
X5370477Y3342812D2*
Y3215203D1*
X5421521Y3342812D2*
Y3215203D1*
X5370477Y3282026D2*
X5421521D1*
X5438187Y3342812D2*
Y3215203D1*
X5463709D1*
X5474659Y3221379D1*
X5481987Y3233453D1*
X5485609Y3245666D1*
X5489231Y3263776D1*
Y3294239D1*
X5485609Y3312489D1*
X5481987Y3324562D1*
X5474659Y3336776D1*
X5463709Y3342812D1*
X5438187D1*
X5505898Y3282026D2*
X5538664D1*
X5549614Y3288203D1*
X5553320Y3294239D1*
X5556942Y3306312D1*
Y3318526D1*
X5553320Y3330599D1*
X5549614Y3336776D1*
X5538664Y3342812D1*
X5505898D1*
Y3215203D1*
X5531420Y3282026D2*
X5556942Y3215203D1*
X5573609Y3278937D2*
X5615724D1*
X5632391Y3318385D2*
X5639719Y3324562D1*
X5650669Y3342672D1*
Y3215203D1*
X5667335Y3300276D2*
X5707429Y3215203D1*
Y3300276D2*
X5667335Y3215203D1*
X5727802Y3312349D2*
Y3318385D1*
X5731424Y3330599D1*
X5735046Y3336635D1*
X5742374Y3342672D1*
X5756946D1*
X5764190Y3336635D1*
X5767812Y3330599D1*
X5771518Y3318385D1*
Y3306312D1*
X5767812Y3294099D1*
X5760568Y3275989D1*
X5724096Y3215203D1*
X5775140D1*
X7533935Y3139766D2*
X7406326D1*
X7533935Y3088723D2*
X7406326D1*
X7473149Y3139766D2*
Y3088723D1*
X7533935Y3072056D2*
X7406326D1*
Y3046534D1*
X7412503Y3035584D1*
X7424576Y3028256D1*
X7436789Y3024634D1*
X7454899Y3021012D1*
X7485362D1*
X7503612Y3024634D1*
X7515685Y3028256D1*
X7527899Y3035584D1*
X7533935Y3046534D1*
Y3072056D1*
X7473149Y3004345D2*
Y2971580D1*
X7479326Y2960630D1*
X7485362Y2956923D1*
X7497435Y2953301D1*
X7509649D1*
X7521722Y2956923D1*
X7527899Y2960630D1*
X7533935Y2971580D1*
Y3004345D1*
X7406326D1*
X7473149Y2978823D2*
X7406326Y2953301D1*
X7470060Y2936635D2*
Y2894519D1*
X7509509Y2877853D2*
X7515685Y2870525D1*
X7533795Y2859575D1*
X7406326D1*
X7491399Y2842908D2*
X7406326Y2802814D1*
X7491399D2*
X7406326Y2842908D1*
X7503472Y2782441D2*
X7509509D1*
X7521722Y2778819D1*
X7527759Y2775197D1*
X7533795Y2767869D1*
Y2753297D1*
X7527759Y2746054D1*
X7521722Y2742432D1*
X7509509Y2738726D1*
X7497435D1*
X7485222Y2742432D1*
X7467112Y2749676D1*
X7406326Y2786147D1*
Y2735104D1*
X3211484Y3342812D2*
Y3215203D1*
X3262527Y3342812D2*
Y3215203D1*
X3211484Y3282026D2*
X3262527D1*
X3279194Y3342812D2*
Y3215203D1*
X3304716D1*
X3315666Y3221379D1*
X3322994Y3233453D1*
X3326616Y3245666D1*
X3330238Y3263776D1*
Y3294239D1*
X3326616Y3312489D1*
X3322994Y3324562D1*
X3315666Y3336776D1*
X3304716Y3342812D1*
X3279194D1*
X3346905Y3282026D2*
X3379670D1*
X3390620Y3288203D1*
X3394327Y3294239D1*
X3397949Y3306312D1*
Y3318526D1*
X3394327Y3330599D1*
X3390620Y3336776D1*
X3379670Y3342812D1*
X3346905D1*
Y3215203D1*
X3372427Y3282026D2*
X3397949Y3215203D1*
X3414615Y3278937D2*
X3456731D1*
X3473397Y3318385D2*
X3480725Y3324562D1*
X3491675Y3342672D1*
Y3215203D1*
X3508342Y3300276D2*
X3548436Y3215203D1*
Y3300276D2*
X3508342Y3215203D1*
X3568809Y3312349D2*
Y3318385D1*
X3572431Y3330599D1*
X3576053Y3336635D1*
X3583381Y3342672D1*
X3597953D1*
X3605196Y3336635D1*
X3608818Y3330599D1*
X3612524Y3318385D1*
Y3306312D1*
X3608818Y3294099D1*
X3601574Y3275989D1*
X3565103Y3215203D1*
X3616146D1*
X5140140Y2738438D2*
Y2866047D1*
X5089096Y2738438D2*
Y2866047D1*
X5140140Y2799224D2*
X5089096D1*
X5072429Y2738438D2*
Y2866047D1*
X5046907D1*
X5035957Y2859871D1*
X5028629Y2847797D1*
X5025007Y2835584D1*
X5021385Y2817474D1*
Y2787011D1*
X5025007Y2768761D1*
X5028629Y2756688D1*
X5035957Y2744474D1*
X5046907Y2738438D1*
X5072429D1*
X5004719Y2799224D2*
X4971953D1*
X4961003Y2793047D1*
X4957297Y2787011D1*
X4953675Y2774938D1*
Y2762724D1*
X4957297Y2750651D1*
X4961003Y2744474D1*
X4971953Y2738438D1*
X5004719D1*
Y2866047D1*
X4979197Y2799224D2*
X4953675Y2866047D1*
X4937008Y2802313D2*
X4894893D1*
X4878226Y2762865D2*
X4870898Y2756688D1*
X4859948Y2738578D1*
Y2866047D1*
X4843281Y2780974D2*
X4803187Y2866047D1*
Y2780974D2*
X4843281Y2866047D1*
X4782815Y2768901D2*
Y2762865D1*
X4779193Y2750651D1*
X4775571Y2744615D1*
X4768243Y2738578D1*
X4753671D1*
X4746427Y2744615D1*
X4742805Y2750651D1*
X4739099Y2762865D1*
Y2774938D1*
X4742805Y2787151D1*
X4750049Y2805261D1*
X4786521Y2866047D1*
X4735477D1*
X607977Y3342812D2*
Y3215203D1*
X659021Y3342812D2*
Y3215203D1*
X607977Y3282026D2*
X659021D1*
X675687Y3342812D2*
Y3215203D1*
X701209D1*
X712159Y3221379D1*
X719487Y3233453D1*
X723109Y3245666D1*
X726731Y3263776D1*
Y3294239D1*
X723109Y3312489D1*
X719487Y3324562D1*
X712159Y3336776D1*
X701209Y3342812D1*
X675687D1*
X743398Y3282026D2*
X776164D1*
X787114Y3288203D1*
X790820Y3294239D1*
X794442Y3306312D1*
Y3318526D1*
X790820Y3330599D1*
X787114Y3336776D1*
X776164Y3342812D1*
X743398D1*
Y3215203D1*
X768920Y3282026D2*
X794442Y3215203D1*
X811109Y3278937D2*
X853224D1*
X869891Y3318385D2*
X877219Y3324562D1*
X888169Y3342672D1*
Y3215203D1*
X904835Y3300276D2*
X944929Y3215203D1*
Y3300276D2*
X904835Y3215203D1*
X965302Y3312349D2*
Y3318385D1*
X968924Y3330599D1*
X972546Y3336635D1*
X979874Y3342672D1*
X994446D1*
X1001690Y3336635D1*
X1005312Y3330599D1*
X1009018Y3318385D1*
Y3306312D1*
X1005312Y3294099D1*
X998068Y3275989D1*
X961596Y3215203D1*
X1012640D1*
X2385984Y3374562D2*
Y3246953D1*
X2437027Y3374562D2*
Y3246953D1*
X2385984Y3313776D2*
X2437027D1*
X2453694Y3374562D2*
Y3246953D1*
X2479216D1*
X2490166Y3253129D1*
X2497494Y3265203D1*
X2501116Y3277416D1*
X2504738Y3295526D1*
Y3325989D1*
X2501116Y3344239D1*
X2497494Y3356312D1*
X2490166Y3368526D1*
X2479216Y3374562D1*
X2453694D1*
X2521405Y3313776D2*
X2554170D1*
X2565120Y3319953D1*
X2568827Y3325989D1*
X2572449Y3338062D1*
Y3350276D1*
X2568827Y3362349D1*
X2565120Y3368526D1*
X2554170Y3374562D1*
X2521405D1*
Y3246953D1*
X2546927Y3313776D2*
X2572449Y3246953D1*
X2589115Y3310687D2*
X2631231D1*
X2647897Y3350135D2*
X2655225Y3356312D1*
X2666175Y3374422D1*
Y3246953D1*
X2682842Y3332026D2*
X2722936Y3246953D1*
Y3332026D2*
X2682842Y3246953D1*
X2743309Y3344099D2*
Y3350135D1*
X2746931Y3362349D1*
X2750553Y3368385D1*
X2757881Y3374422D1*
X2772453D1*
X2779696Y3368385D1*
X2783318Y3362349D1*
X2787024Y3350135D1*
Y3338062D1*
X2783318Y3325849D1*
X2776074Y3307739D1*
X2739603Y3246953D1*
X2790646D1*
X-1805020Y3311062D2*
Y3183453D1*
X-1753976Y3311062D2*
Y3183453D1*
X-1805020Y3250276D2*
X-1753976D1*
X-1737309Y3311062D2*
Y3183453D1*
X-1711787D1*
X-1700837Y3189629D1*
X-1693509Y3201703D1*
X-1689887Y3213916D1*
X-1686265Y3232026D1*
Y3262489D1*
X-1689887Y3280739D1*
X-1693509Y3292812D1*
X-1700837Y3305026D1*
X-1711787Y3311062D1*
X-1737309D1*
X-1669599Y3250276D2*
X-1636833D1*
X-1625883Y3256453D1*
X-1622177Y3262489D1*
X-1618555Y3274562D1*
Y3286776D1*
X-1622177Y3298849D1*
X-1625883Y3305026D1*
X-1636833Y3311062D1*
X-1669599D1*
Y3183453D1*
X-1644077Y3250276D2*
X-1618555Y3183453D1*
X-1601888Y3247187D2*
X-1559773D1*
X-1543106Y3286635D2*
X-1535778Y3292812D1*
X-1524828Y3310922D1*
Y3183453D1*
X-1508161Y3268526D2*
X-1468067Y3183453D1*
Y3268526D2*
X-1508161Y3183453D1*
X-1447695Y3280599D2*
Y3286635D1*
X-1444073Y3298849D1*
X-1440451Y3304885D1*
X-1433123Y3310922D1*
X-1418551D1*
X-1411307Y3304885D1*
X-1407685Y3298849D1*
X-1403979Y3286635D1*
Y3274562D1*
X-1407685Y3262349D1*
X-1414929Y3244239D1*
X-1451401Y3183453D1*
X-1400357D1*
X-27023Y3342812D2*
Y3215203D1*
X24021Y3342812D2*
Y3215203D1*
X-27023Y3282026D2*
X24021D1*
X40687Y3342812D2*
Y3215203D1*
X66209D1*
X77159Y3221379D1*
X84487Y3233453D1*
X88109Y3245666D1*
X91731Y3263776D1*
Y3294239D1*
X88109Y3312489D1*
X84487Y3324562D1*
X77159Y3336776D1*
X66209Y3342812D1*
X40687D1*
X108398Y3282026D2*
X141164D1*
X152114Y3288203D1*
X155820Y3294239D1*
X159442Y3306312D1*
Y3318526D1*
X155820Y3330599D1*
X152114Y3336776D1*
X141164Y3342812D1*
X108398D1*
Y3215203D1*
X133920Y3282026D2*
X159442Y3215203D1*
X176109Y3278937D2*
X218224D1*
X234891Y3318385D2*
X242219Y3324562D1*
X253169Y3342672D1*
Y3215203D1*
X269835Y3300276D2*
X309929Y3215203D1*
Y3300276D2*
X269835Y3215203D1*
X330302Y3312349D2*
Y3318385D1*
X333924Y3330599D1*
X337546Y3336635D1*
X344874Y3342672D1*
X359446D1*
X366690Y3336635D1*
X370312Y3330599D1*
X374018Y3318385D1*
Y3306312D1*
X370312Y3294099D1*
X363068Y3275989D1*
X326596Y3215203D1*
X377640D1*
X-4599020Y3342812D2*
Y3215203D1*
X-4547976Y3342812D2*
Y3215203D1*
X-4599020Y3282026D2*
X-4547976D1*
X-4531309Y3342812D2*
Y3215203D1*
X-4505787D1*
X-4494837Y3221379D1*
X-4487509Y3233453D1*
X-4483887Y3245666D1*
X-4480265Y3263776D1*
Y3294239D1*
X-4483887Y3312489D1*
X-4487509Y3324562D1*
X-4494837Y3336776D1*
X-4505787Y3342812D1*
X-4531309D1*
X-4463599Y3282026D2*
X-4430833D1*
X-4419883Y3288203D1*
X-4416177Y3294239D1*
X-4412555Y3306312D1*
Y3318526D1*
X-4416177Y3330599D1*
X-4419883Y3336776D1*
X-4430833Y3342812D1*
X-4463599D1*
Y3215203D1*
X-4438077Y3282026D2*
X-4412555Y3215203D1*
X-4395888Y3278937D2*
X-4353773D1*
X-4337106Y3318385D2*
X-4329778Y3324562D1*
X-4318828Y3342672D1*
Y3215203D1*
X-4302161Y3300276D2*
X-4262067Y3215203D1*
Y3300276D2*
X-4302161Y3215203D1*
X-4241695Y3312349D2*
Y3318385D1*
X-4238073Y3330599D1*
X-4234451Y3336635D1*
X-4227123Y3342672D1*
X-4212551D1*
X-4205307Y3336635D1*
X-4201685Y3330599D1*
X-4197979Y3318385D1*
Y3306312D1*
X-4201685Y3294099D1*
X-4208929Y3275989D1*
X-4245401Y3215203D1*
X-4194357D1*
X-2821020Y3374562D2*
Y3246953D1*
X-2769976Y3374562D2*
Y3246953D1*
X-2821020Y3313776D2*
X-2769976D1*
X-2753309Y3374562D2*
Y3246953D1*
X-2727787D1*
X-2716837Y3253129D1*
X-2709509Y3265203D1*
X-2705887Y3277416D1*
X-2702265Y3295526D1*
Y3325989D1*
X-2705887Y3344239D1*
X-2709509Y3356312D1*
X-2716837Y3368526D1*
X-2727787Y3374562D1*
X-2753309D1*
X-2685599Y3313776D2*
X-2652833D1*
X-2641883Y3319953D1*
X-2638177Y3325989D1*
X-2634555Y3338062D1*
Y3350276D1*
X-2638177Y3362349D1*
X-2641883Y3368526D1*
X-2652833Y3374562D1*
X-2685599D1*
Y3246953D1*
X-2660077Y3313776D2*
X-2634555Y3246953D1*
X-2617888Y3310687D2*
X-2575773D1*
X-2559106Y3350135D2*
X-2551778Y3356312D1*
X-2540828Y3374422D1*
Y3246953D1*
X-2524161Y3332026D2*
X-2484067Y3246953D1*
Y3332026D2*
X-2524161Y3246953D1*
X-2463695Y3344099D2*
Y3350135D1*
X-2460073Y3362349D1*
X-2456451Y3368385D1*
X-2449123Y3374422D1*
X-2434551D1*
X-2427307Y3368385D1*
X-2423685Y3362349D1*
X-2419979Y3350135D1*
Y3338062D1*
X-2423685Y3325849D1*
X-2430929Y3307739D1*
X-2467401Y3246953D1*
X-2416357D1*
X-3436819Y830107D2*
X-3309209D1*
X-3436819Y881151D2*
X-3309209D1*
X-3376032Y830107D2*
Y881151D1*
X-3436819Y897817D2*
X-3309209D1*
Y923339D1*
X-3315386Y934289D1*
X-3327459Y941617D1*
X-3339673Y945239D1*
X-3357782Y948861D1*
X-3388246D1*
X-3406496Y945239D1*
X-3418569Y941617D1*
X-3430782Y934289D1*
X-3436819Y923339D1*
Y897817D1*
X-3376032Y965528D2*
Y998294D1*
X-3382209Y1009244D1*
X-3388246Y1012950D1*
X-3400319Y1016572D1*
X-3412532D1*
X-3424605Y1012950D1*
X-3430782Y1009244D1*
X-3436819Y998294D1*
Y965528D1*
X-3309209D1*
X-3376032Y991050D2*
X-3309209Y1016572D1*
X-3372944Y1033239D2*
Y1075354D1*
X-3412392Y1092021D2*
X-3418569Y1099349D1*
X-3436678Y1110299D1*
X-3309209D1*
X-3394282Y1126965D2*
X-3309209Y1167059D1*
X-3394282D2*
X-3309209Y1126965D1*
X-3406355Y1187432D2*
X-3412392D1*
X-3424605Y1191054D1*
X-3430642Y1194676D1*
X-3436678Y1202004D1*
Y1216576D1*
X-3430642Y1223820D1*
X-3424605Y1227442D1*
X-3412392Y1231148D1*
X-3400319D1*
X-3388105Y1227442D1*
X-3369996Y1220198D1*
X-3309209Y1183726D1*
Y1234770D1*
X-3436819Y2608107D2*
X-3309209D1*
X-3436819Y2659151D2*
X-3309209D1*
X-3376032Y2608107D2*
Y2659151D1*
X-3436819Y2675817D2*
X-3309209D1*
Y2701339D1*
X-3315386Y2712289D1*
X-3327459Y2719617D1*
X-3339673Y2723239D1*
X-3357782Y2726861D1*
X-3388246D1*
X-3406496Y2723239D1*
X-3418569Y2719617D1*
X-3430782Y2712289D1*
X-3436819Y2701339D1*
Y2675817D1*
X-3376032Y2743528D2*
Y2776294D1*
X-3382209Y2787244D1*
X-3388246Y2790950D1*
X-3400319Y2794572D1*
X-3412532D1*
X-3424605Y2790950D1*
X-3430782Y2787244D1*
X-3436819Y2776294D1*
Y2743528D1*
X-3309209D1*
X-3376032Y2769050D2*
X-3309209Y2794572D1*
X-3372944Y2811239D2*
Y2853354D1*
X-3412392Y2870021D2*
X-3418569Y2877349D1*
X-3436678Y2888299D1*
X-3309209D1*
X-3394282Y2904965D2*
X-3309209Y2945059D1*
X-3394282D2*
X-3309209Y2904965D1*
X-3406355Y2965432D2*
X-3412392D1*
X-3424605Y2969054D1*
X-3430642Y2972676D1*
X-3436678Y2980004D1*
Y2994576D1*
X-3430642Y3001820D1*
X-3424605Y3005442D1*
X-3412392Y3009148D1*
X-3400319D1*
X-3388105Y3005442D1*
X-3369996Y2998198D1*
X-3309209Y2961726D1*
Y3012770D1*
X-6278445Y4005107D2*
X-6150836D1*
X-6278445Y4056151D2*
X-6150836D1*
X-6217659Y4005107D2*
Y4056151D1*
X-6278445Y4072817D2*
X-6150836D1*
Y4098339D1*
X-6157013Y4109289D1*
X-6169086Y4116617D1*
X-6181299Y4120239D1*
X-6199409Y4123861D1*
X-6229872D1*
X-6248122Y4120239D1*
X-6260195Y4116617D1*
X-6272409Y4109289D1*
X-6278445Y4098339D1*
Y4072817D1*
X-6217659Y4140528D2*
Y4173294D1*
X-6223836Y4184244D1*
X-6229872Y4187950D1*
X-6241945Y4191572D1*
X-6254159D1*
X-6266232Y4187950D1*
X-6272409Y4184244D1*
X-6278445Y4173294D1*
Y4140528D1*
X-6150836D1*
X-6217659Y4166050D2*
X-6150836Y4191572D1*
X-6214570Y4208239D2*
Y4250354D1*
X-6254019Y4267021D2*
X-6260195Y4274349D1*
X-6278305Y4285299D1*
X-6150836D1*
X-6235909Y4301965D2*
X-6150836Y4342059D1*
X-6235909D2*
X-6150836Y4301965D1*
X-6278305Y4366054D2*
Y4406064D1*
X-6229732Y4384248D1*
Y4395198D1*
X-6223695Y4402442D1*
X-6217659Y4406064D1*
X-6199409Y4409770D1*
X-6187336D1*
X-6169086Y4406064D1*
X-6156872Y4398820D1*
X-6150836Y4387870D1*
Y4376920D1*
X-6156872Y4366054D1*
X-6163049Y4362432D1*
X-6175122Y4358726D1*
X-5146854Y4151305D2*
Y4278914D1*
X-5197897Y4151305D2*
Y4278914D1*
X-5146854Y4212091D2*
X-5197897D1*
X-5214564Y4151305D2*
Y4278914D1*
X-5240086D1*
X-5251036Y4272737D1*
X-5258364Y4260664D1*
X-5261986Y4248451D1*
X-5265608Y4230341D1*
Y4199878D1*
X-5261986Y4181628D1*
X-5258364Y4169555D1*
X-5251036Y4157341D1*
X-5240086Y4151305D1*
X-5214564D1*
X-5282275Y4212091D2*
X-5315040D1*
X-5325990Y4205914D1*
X-5329697Y4199878D1*
X-5333319Y4187805D1*
Y4175591D1*
X-5329697Y4163518D1*
X-5325990Y4157341D1*
X-5315040Y4151305D1*
X-5282275D1*
Y4278914D1*
X-5307797Y4212091D2*
X-5333319Y4278914D1*
X-5349985Y4215180D2*
X-5392101D1*
X-5408767Y4175731D2*
X-5416095Y4169555D1*
X-5427045Y4151445D1*
Y4278914D1*
X-5443712Y4193841D2*
X-5483806Y4278914D1*
Y4193841D2*
X-5443712Y4278914D1*
X-5507801Y4151445D2*
X-5547810D1*
X-5525994Y4200018D1*
X-5536944D1*
X-5544188Y4206055D1*
X-5547810Y4212091D1*
X-5551516Y4230341D1*
Y4242414D1*
X-5547810Y4260664D1*
X-5540566Y4272878D1*
X-5529616Y4278914D1*
X-5518666D1*
X-5507801Y4272878D1*
X-5504179Y4266701D1*
X-5500473Y4254628D1*
X5253081Y2452685D2*
Y2580294D1*
X5202037Y2452685D2*
Y2580294D1*
X5253081Y2513471D2*
X5202037D1*
X5185370Y2452685D2*
Y2580294D1*
X5159848D1*
X5148898Y2574117D1*
X5141570Y2562044D1*
X5137948Y2549831D1*
X5134326Y2531721D1*
Y2501258D1*
X5137948Y2483008D1*
X5141570Y2470935D1*
X5148898Y2458721D1*
X5159848Y2452685D1*
X5185370D1*
X5117660Y2513471D2*
X5084894D1*
X5073944Y2507294D1*
X5070238Y2501258D1*
X5066616Y2489185D1*
Y2476971D1*
X5070238Y2464898D1*
X5073944Y2458721D1*
X5084894Y2452685D1*
X5117660D1*
Y2580294D1*
X5092138Y2513471D2*
X5066616Y2580294D1*
X5049949Y2516560D2*
X5007834D1*
X4991167Y2477111D2*
X4983839Y2470935D1*
X4972889Y2452825D1*
Y2580294D1*
X4956222Y2495221D2*
X4916128Y2580294D1*
Y2495221D2*
X4956222Y2580294D1*
X4862990D2*
Y2452825D1*
X4899462Y2537758D1*
X4844796D1*
X5036932Y849972D2*
X5069698D1*
X5080648Y856149D1*
X5084354Y862186D1*
X5087976Y874259D1*
Y886472D1*
X5084354Y898545D1*
X5080648Y904722D1*
X5069698Y910759D1*
X5036932D1*
Y783149D1*
X5062454Y849972D2*
X5087976Y783149D1*
X5151981Y910759D2*
X5104643D1*
Y783149D1*
X5151981D1*
X5104643Y849972D2*
X5133787D1*
X5219691Y892509D2*
X5212447Y904722D1*
X5201497Y910759D1*
X5186925D1*
X5175975Y904722D1*
X5168647Y892509D1*
Y880436D1*
X5172353Y868222D1*
X5175975Y862186D1*
X5183219Y856149D1*
X5205119Y843936D1*
X5212447Y837899D1*
X5216069Y831722D1*
X5219691Y819649D1*
Y801399D1*
X5212447Y789326D1*
X5201497Y783149D1*
X5186925D1*
X5175975Y789326D1*
X5168647Y801399D1*
X4020929Y2977229D2*
X4053695D1*
X4064645Y2983406D1*
X4068351Y2989442D1*
X4071973Y3001515D1*
Y3013729D1*
X4068351Y3025802D1*
X4064645Y3031979D1*
X4053695Y3038015D1*
X4020929D1*
Y2910406D1*
X4046451Y2977229D2*
X4071973Y2910406D1*
X4135977Y3038015D2*
X4088639D1*
Y2910406D1*
X4135977D1*
X4088639Y2977229D2*
X4117783D1*
X4203688Y3019765D2*
X4196444Y3031979D1*
X4185494Y3038015D1*
X4170922D1*
X4159972Y3031979D1*
X4152644Y3019765D1*
Y3007692D1*
X4156350Y2995479D1*
X4159972Y2989442D1*
X4167216Y2983406D1*
X4189116Y2971192D1*
X4196444Y2965156D1*
X4200066Y2958979D1*
X4203688Y2946906D1*
Y2928656D1*
X4196444Y2916583D1*
X4185494Y2910406D1*
X4170922D1*
X4159972Y2916583D1*
X4152644Y2928656D1*
X5940169Y929812D2*
Y802203D1*
X5991213Y929812D2*
Y802203D1*
X5940169Y869026D2*
X5991213D1*
X6007880Y929812D2*
Y802203D1*
X6033402D1*
X6044352Y808379D1*
X6051680Y820453D1*
X6055302Y832666D1*
X6058924Y850776D1*
Y881239D1*
X6055302Y899489D1*
X6051680Y911562D1*
X6044352Y923776D1*
X6033402Y929812D1*
X6007880D1*
X6075590Y869026D2*
X6108356D1*
X6119306Y875203D1*
X6123012Y881239D1*
X6126634Y893312D1*
Y905526D1*
X6123012Y917599D1*
X6119306Y923776D1*
X6108356Y929812D1*
X6075590D1*
Y802203D1*
X6101112Y869026D2*
X6126634Y802203D1*
X6143301Y865937D2*
X6185416D1*
X6202083Y905385D2*
X6209411Y911562D1*
X6220361Y929672D1*
Y802203D1*
X6237028Y887276D2*
X6277122Y802203D1*
Y887276D2*
X6237028Y802203D1*
X6330260D2*
Y929672D1*
X6293788Y844739D1*
X6348454D1*
M02*
